<svg width="221" height="54" viewBox="0 0 221 54" fill="none" xmlns="http://www.w3.org/2000/svg">
<path fill-rule="evenodd" clip-rule="evenodd" d="M0.513562 1.01484C-0.117474 1.36878 -0.131279 1.49159 0.277906 3.11504C0.5169 4.06326 1.16027 8.33487 1.70736 12.6073C2.63555 19.8531 2.68338 20.669 2.42093 24.7453C2.26611 27.1488 2.12579 30.3709 2.10871 31.9056C2.06701 35.7194 3.37736 46.228 4.30345 49.5046C4.94947 51.7905 5.16654 52.2003 6.0329 52.7675C7.34495 53.6266 8.12924 53.6909 10.8664 53.1641C13.6279 52.6324 14.5695 52.0764 15.2465 50.5773C15.7383 49.4875 15.7218 49.2163 14.8039 43.3341C13.4735 34.8088 11.0987 26.4065 9.01906 22.8668C6.82956 19.1398 3.98336 6.93618 4.40529 3.08447C4.59272 1.37429 4.57527 1.3053 3.83419 0.840137C3.01773 0.327285 1.60715 0.401449 0.513562 1.01484ZM0.862178 1.74695C0.897473 2.03099 1.12162 2.16037 1.41166 2.06404C2.14904 1.81979 2.16417 1.09435 1.43007 1.18773C1.06016 1.23478 0.827073 1.46442 0.862178 1.74695ZM0.991958 2.7914C1.01279 2.95903 1.23316 3.07031 1.48167 3.0387C1.73019 3.00709 1.91648 2.84408 1.89565 2.67646C1.87482 2.50883 1.65445 2.39755 1.40593 2.42916C1.15742 2.46077 0.97113 2.62378 0.991958 2.7914ZM2.19688 2.63814C2.21771 2.80577 2.3703 2.92567 2.53598 2.9046C2.70165 2.88353 2.82017 2.72914 2.79934 2.56151C2.77851 2.39389 2.62591 2.27398 2.46024 2.29505C2.29456 2.31613 2.17605 2.47052 2.19688 2.63814ZM3.10057 2.5232C3.1214 2.69082 3.27399 2.81073 3.43967 2.78965C3.60534 2.76858 3.72386 2.61419 3.70303 2.44657C3.6822 2.27894 3.5296 2.15903 3.36393 2.18011C3.19825 2.20118 3.07974 2.35557 3.10057 2.5232ZM1.72958 4.13501C1.72482 4.28143 1.98766 6.31791 2.3133 8.66033C3.03285 13.838 3.42797 20.66 3.3452 26.4853C3.25593 32.7729 3.7465 40.3853 4.53236 44.9096C5.62156 51.1784 5.53133 51.0654 9.2896 50.8765L11.5427 50.7636L11.1416 46.9772C10.9211 44.8948 10.4064 40.9 9.9982 38.1C9.37001 33.793 9.32321 33.0002 9.69493 32.953C10.2426 32.8833 11.4406 31.2613 11.1266 31.0146C10.9998 30.9146 10.5428 31.273 10.1115 31.8108C9.23104 32.9086 9.17305 32.8581 8.58891 30.4866C8.3888 29.674 8.18848 28.9877 8.14387 28.9612C8.09927 28.9347 7.22351 28.9346 6.19775 28.9611L4.33294 29.0094L4.34149 30.6247C4.34659 31.5129 4.56438 34.0932 4.82598 36.3586C5.2222 39.7886 5.22497 40.2542 4.8439 39.1426C4.22404 37.3357 3.89614 32.1776 3.98462 25.63C4.02498 22.645 4.03813 19.6481 4.01386 18.9701C3.97495 17.8689 3.99376 17.8996 4.19211 19.257C4.31432 20.0928 4.38589 22.501 4.35186 24.6084C4.2822 28.8868 4.23276 28.7943 6.35339 28.3667C7.58385 28.1185 7.659 28.0436 7.70972 27.0137L7.76364 25.9233L7.92868 26.9289C8.07855 27.8395 8.17124 27.9156 8.91043 27.7328C9.94266 27.4776 9.87714 27.1522 7.87746 22.6011C5.72374 17.6994 4.92097 14.9056 4.01009 9.14108C3.56815 6.34535 3.10074 4.07112 2.97182 4.08752C2.84259 4.10396 2.51205 4.06149 2.23733 3.99303C1.96261 3.92457 1.73403 3.98862 1.72958 4.13501ZM3.67827 13.5949C3.95946 15.8579 4.12176 16.7775 4.03933 15.6387C3.95659 14.5001 3.72649 12.6483 3.52809 11.5243C3.32938 10.4004 3.39709 11.332 3.67827 13.5949ZM7.15545 24.9171C7.20752 25.3361 7.29722 25.499 7.3546 25.2787C7.41233 25.0587 7.36973 24.7158 7.25993 24.5168C7.15047 24.318 7.10338 24.498 7.15545 24.9171ZM8.54173 29.075C8.56255 29.2426 8.70702 29.3635 8.86305 29.3437C9.01909 29.3239 9.21321 29.1598 9.2948 28.9792C9.37639 28.7985 9.23162 28.6776 8.97347 28.7105C8.71532 28.7433 8.5209 28.9074 8.54173 29.075ZM9.54759 29.3538C9.06413 30.0262 8.9144 32.1235 9.35359 32.0676C9.42618 32.0584 9.8578 31.6091 10.3124 31.0689C11.0398 30.2052 11.0903 29.9935 10.7328 29.3127C10.2401 28.3744 10.2526 28.3738 9.54759 29.3538ZM9.52184 30.3952C9.42515 30.5208 9.36375 30.7654 9.3853 30.9388C9.40901 31.1296 9.54715 31.0938 9.73598 30.8478C9.90743 30.6245 9.96882 30.3798 9.87252 30.3041C9.77622 30.2285 9.61819 30.2693 9.52184 30.3952ZM10.4287 32.872C10.0159 33.4428 9.74135 33.9594 9.81867 34.0202C10.0883 34.232 11.5045 32.5213 11.3423 32.179C11.246 31.9755 10.871 32.26 10.4287 32.872ZM10.5761 33.9399C10.1595 34.4164 9.87929 34.9316 9.95343 35.085C10.1096 35.4082 11.8707 33.7028 11.8181 33.2798C11.7607 32.8181 11.3801 33.0203 10.5761 33.9399ZM10.8963 35.0639C10.4057 35.4987 10.0236 36.0266 10.0475 36.2362C10.1197 36.871 10.5299 36.6169 11.4645 35.3594C12.467 34.0102 12.2263 33.8851 10.8963 35.0639ZM11.1959 36.2753C10.3155 37.2377 9.93266 38.1858 10.4511 38.1198C10.7897 38.0767 12.4471 36.2756 12.5544 35.8338C12.7599 34.9887 12.2091 35.1678 11.1959 36.2753ZM11.5232 37.6785C10.2563 39.1774 10.4671 39.9456 11.8028 38.6971L12.8308 37.736L11.8406 38.9889C10.9203 40.1529 10.8677 40.3599 11.0962 41.9104C11.2316 42.8281 11.4337 43.5674 11.5451 43.5533C11.6566 43.5391 12.2207 42.9593 12.7984 42.2648C13.4884 41.4352 13.7062 40.9716 13.4333 40.9125C13.2047 40.8633 12.7496 41.1506 12.4218 41.5511C12.0939 41.9516 11.6991 42.295 11.5441 42.3141C11.389 42.3335 11.8057 41.7372 12.4701 40.9895C13.8926 39.3882 13.6503 38.7949 12.1522 40.2114L11.118 41.1894L12.0851 39.9769C12.8632 39.0015 13.0197 38.5519 12.8864 37.6785C12.7951 37.0814 12.6461 36.6063 12.5554 36.6228C12.4644 36.6393 12.0002 37.1144 11.5232 37.6785ZM12.3426 43.2927C11.7751 43.9441 11.3795 44.6214 11.4629 44.7978C11.6554 45.2039 13.9375 42.9484 13.8715 42.4171C13.7966 41.8143 13.4643 42.0045 12.3426 43.2927ZM12.5126 44.7695C11.9357 45.4041 11.5485 46.1023 11.6519 46.3207C11.783 46.5978 12.1781 46.3207 12.9594 45.4027C14.0078 44.1716 14.3105 43.5049 13.7868 43.5824C13.6626 43.6006 13.0895 44.1348 12.5126 44.7695ZM12.8049 46.1465C12.1407 46.8957 11.7142 47.6029 11.8573 47.7178C12.0004 47.833 12.5653 47.3927 13.1127 46.7395C13.8953 45.8056 13.8606 45.8958 12.9501 47.1621C11.5234 49.1457 11.7488 49.5312 13.2928 47.7482C14.1983 46.7024 14.3857 46.2702 14.2202 45.6108L14.0126 44.7843L12.8049 46.1465ZM13.0145 48.565C11.6761 50.3522 11.845 50.6016 13.3132 49.0056C14.4613 47.7575 14.7654 47.1683 14.2265 47.2369C14.0945 47.2537 13.5491 47.8512 13.0145 48.565ZM6.14574 51.6563C6.16752 51.8315 6.3551 51.9547 6.56227 51.9302C6.76974 51.9057 7.49087 51.8926 8.16512 51.9012C8.992 51.9119 9.23251 51.8429 8.90373 51.689C8.11422 51.3192 6.1009 51.2954 6.14574 51.6563ZM7.20262 52.7741C7.22344 52.9417 7.38417 53.0606 7.55948 53.0383C7.7348 53.016 7.77771 52.8712 7.65446 52.7166C7.53121 52.562 7.37079 52.4431 7.29759 52.4524C7.22439 52.4618 7.18179 52.6065 7.20262 52.7741Z" fill="#232323"/>
<path fill-rule="evenodd" clip-rule="evenodd" d="M27.2814 0.676687C26.2169 0.973308 26.1876 1.0196 26.235 2.32883C26.2618 3.06972 25.8796 6.73762 25.3856 10.4799L24.4877 17.2841L22.5107 20.7121C21.4235 22.5976 20.1807 25.1874 19.7488 26.4671C18.0574 31.4813 16.8118 45.3279 17.8537 47.5334C18.0658 47.9824 18.8424 48.7602 19.5793 49.2622C20.7516 50.0605 21.3809 50.2393 24.6144 50.6932C27.9402 51.1601 28.4744 51.1563 29.9555 50.6554C30.9656 50.3137 31.8078 49.7823 32.1367 49.2794C32.7989 48.2655 34.3128 38.7529 34.719 33.0534C35.0336 28.6345 34.8025 26.9901 33.3627 23.4127C32.8083 22.0354 32.0646 19.7338 31.71 18.298C31.1139 15.8835 31.0996 15.294 31.5221 10.4555C31.8035 7.22929 32.1318 4.94271 32.3777 4.49116C32.5974 4.08823 32.8496 3.22869 32.9384 2.58121C33.0853 1.50969 33.0157 1.37422 32.164 1.07543C30.6101 0.530305 28.4416 0.353481 27.2814 0.676687ZM28.672 1.6484C28.6487 1.81838 28.9761 2.00609 29.3995 2.06553C29.823 2.12497 30.1885 2.03453 30.2118 1.86454C30.2351 1.69456 29.9077 1.50685 29.4843 1.44741C29.0609 1.38797 28.6953 1.47842 28.672 1.6484ZM31.544 2.63937C31.3818 2.83615 31.3209 3.09222 31.4085 3.20848C31.6462 3.52378 32.0026 3.15924 31.915 2.69018C31.8539 2.36156 31.7813 2.35136 31.544 2.63937ZM27.2707 2.71174C27.2024 3.20994 27.3914 3.35869 28.2438 3.47835C29.5079 3.6558 30.947 3.36986 31.0074 2.92914C31.0323 2.74803 30.2594 2.50126 29.2032 2.35298C27.5609 2.12244 27.3461 2.16222 27.2707 2.71174ZM27.7227 5.13777L27.087 9.77371L28.314 9.84611C30.4596 9.97247 30.6999 9.74976 31.0325 7.32393C31.3758 4.82021 30.8496 4.26753 30.4391 6.70039L30.1664 8.31592L30.2287 5.17454L27.7227 5.13777ZM28.4904 10.3591C27.7578 10.3228 27.221 10.4355 27.2976 10.6094C27.5221 11.1188 29.7431 11.2976 30.2357 10.8457C30.5965 10.5149 30.5996 10.435 30.2524 10.4307C30.0162 10.4278 29.223 10.3955 28.4904 10.3591ZM28.0172 11.5738L26.695 11.4875L26.4916 12.937C26.2326 14.7815 25.3083 17.1779 23.1631 21.5644C20.1417 27.7426 19.8516 28.7796 18.9208 36.7349C18.3659 41.4767 18.1766 44.199 18.3434 45.031C18.7062 46.8416 20.2207 48.6589 21.5187 48.8411C22.3905 48.9635 22.5375 48.8937 22.4154 48.4157C22.3348 48.1013 22.201 47.3744 22.118 46.8005C21.9892 45.911 21.7936 45.7034 20.7946 45.3962C20.1257 45.1902 19.5653 44.8066 19.4896 44.5027C19.4168 44.2096 19.7215 40.745 20.1669 36.8031L20.9768 29.6365L22.0468 29.6018C22.6354 29.5827 25.3054 29.8315 27.9801 30.155C32.3701 30.6852 32.8503 30.69 32.9173 30.2016C33.0616 29.1493 33.4843 29.7473 33.4118 30.9011C33.3711 31.5452 33.319 32.3881 33.2954 32.7748C33.2719 33.1615 33.3417 33.4901 33.4507 33.5054C33.759 33.5487 34.2341 32.5352 33.9672 32.4032C33.8368 32.3383 33.8824 31.5269 34.0689 30.6002C34.4609 28.6473 34.339 28.566 32.1197 29.3022C30.8132 29.7356 30.1586 29.7325 27.0802 29.2783C25.1344 28.991 23.2562 28.5856 22.9065 28.3774C22.4715 28.1182 23.457 28.1649 26.025 28.5254C28.9379 28.9343 30.1272 28.9708 31.3316 28.6885C33.2087 28.2485 33.2083 28.2875 31.3655 23.6187C29.872 19.8358 29.3308 17.5085 29.5826 15.9518C29.7244 15.0732 29.7653 15.1823 29.8036 16.5416C29.8571 18.4386 30.5149 20.5401 32.2095 24.2273C32.8564 25.6349 33.3637 26.9463 33.3369 27.1419C33.3101 27.3373 33.4267 27.5168 33.5961 27.5406C34.1125 27.6131 34.0118 27.1986 32.9078 24.7137C30.8185 20.0109 30.29 17.7033 30.3114 13.3765L30.3206 11.4877L29.9374 12.8514C29.5619 14.187 29.5562 14.1915 29.6642 13.0679C29.7932 11.7261 29.7502 11.6873 28.0172 11.5738ZM32.408 31.6265C32.373 31.8814 32.483 32.1095 32.6524 32.1333C32.8218 32.1571 32.9889 31.9679 33.0239 31.7129C33.0589 31.4579 32.9489 31.2299 32.7795 31.2061C32.6102 31.1823 32.443 31.3715 32.408 31.6265ZM21.3581 31.4929C20.9085 33.4143 20.15 42.7929 20.3677 43.7414C20.5327 44.4607 20.7678 44.5734 23.2438 45.1213C25.3948 45.5972 26.1385 45.6468 26.922 45.3671C27.462 45.1739 28.1384 45.0483 28.4249 45.0873C28.7114 45.1265 29.0524 45.0295 29.1824 44.8716C29.3126 44.7138 29.5586 44.7008 29.7294 44.8426C29.9173 44.9991 29.7444 45.1657 29.2903 45.2654C28.3699 45.4676 28.5098 45.7705 29.4714 45.6572C30.1634 45.5757 30.1762 45.5208 31.1107 38.5759L32.0526 31.5766L21.6794 30.1204L21.3581 31.4929ZM32.4298 32.7103C32.3105 32.8549 32.3421 33.0801 32.4995 33.2112C32.6571 33.342 32.8156 33.2323 32.8519 32.9674C32.9263 32.4244 32.7525 32.3187 32.4298 32.7103ZM25.0791 31.9327C25.965 32.121 27.3509 32.3149 28.1587 32.3637C28.9663 32.4122 28.241 32.2584 26.5472 32.0213C24.8533 31.7844 24.1927 31.7446 25.0791 31.9327ZM33.2982 34.2901C33.2619 34.555 33.3825 34.7055 33.5663 34.6242C33.7501 34.5429 33.9184 34.3457 33.9403 34.1856C33.9623 34.0255 33.8416 33.8753 33.6723 33.8515C33.5029 33.8277 33.3346 34.0252 33.2982 34.2901ZM25.0189 33.1635C24.3361 33.2103 24.2646 33.3399 24.234 34.5865C24.2127 35.4583 24.4582 36.3685 24.9077 37.0849C25.5463 38.1023 25.5755 38.3747 25.2077 39.8846C24.9001 41.1481 24.6093 41.6642 24.0184 41.9949C23.0012 42.5644 23.4498 43.2529 24.9775 43.4674C26.5441 43.6873 27.1202 43.141 26.2461 42.2642C25.7461 41.7627 25.4847 41.6668 25.2794 41.9092C24.861 42.4039 25.0224 41.5518 25.7371 39.4918C26.0749 38.5182 26.7256 37.3054 27.1827 36.7966C27.9875 35.9009 28.7996 34.2064 28.5699 33.9017C28.3755 33.6438 25.805 33.1094 25.0189 33.1635ZM32.3532 34.315C32.3285 34.4948 32.4587 34.5758 32.6425 34.4945C32.8263 34.4132 32.985 34.2855 32.9953 34.2104C33.0056 34.1353 32.8754 34.0547 32.706 34.0309C32.5367 34.0071 32.3779 34.1351 32.3532 34.315ZM25.9366 33.6127C26.2225 33.7322 26.7072 33.8002 27.0144 33.764C27.3216 33.728 27.0877 33.6303 26.4949 33.5471C25.9021 33.4639 25.6507 33.4935 25.9366 33.6127ZM30.4827 36.7375C30.3147 38.0858 30.1842 39.9693 30.1924 40.9233C30.2021 42.0452 30.3443 41.2303 30.5947 38.6172C31.0257 34.1188 30.9555 32.9397 30.4827 36.7375ZM24.491 34.4266C24.3797 35.2382 25.3675 36.7809 26.061 36.8782C26.3874 36.924 26.6729 36.8268 26.6955 36.662C26.718 36.4976 26.541 36.4082 26.302 36.4638C26.0631 36.5194 25.7364 36.3523 25.5758 36.0925C25.3382 35.7079 25.4436 35.6673 26.1448 35.8731C26.7905 36.0627 27.1546 35.9645 27.6034 35.4797C27.9324 35.1242 28.215 34.7367 28.2313 34.6181C28.2475 34.4997 27.4298 34.2822 26.4143 34.1346C24.8331 33.9048 24.5568 33.9469 24.491 34.4266ZM21.4877 36.5513C21.2663 38.1661 21.2277 38.8342 21.4019 38.0355C21.5761 37.2368 21.7572 35.9159 21.8045 35.0994C21.8518 34.2829 21.7092 34.9364 21.4877 36.5513ZM32.1837 35.5512C32.159 35.7311 32.2892 35.812 32.4729 35.7307C32.6567 35.6494 32.8155 35.5218 32.8258 35.4467C32.8361 35.3716 32.7059 35.2909 32.5365 35.2671C32.3671 35.2434 32.2083 35.3713 32.1837 35.5512ZM33.11 35.6627C33.0867 35.8326 33.2062 35.9912 33.3756 36.015C33.545 36.0387 33.7026 35.9191 33.7259 35.7491C33.7492 35.5791 33.6297 35.4206 33.4604 35.3968C33.291 35.3731 33.1333 35.4927 33.11 35.6627ZM33.1257 36.8827C32.9634 37.0795 32.9026 37.3356 32.9902 37.4518C33.2279 37.7671 33.5842 37.4026 33.4967 36.9335C33.4356 36.6049 33.3629 36.5947 33.1257 36.8827ZM32.1547 38.2323C32.1201 38.5944 32.183 38.6779 32.3151 38.4454C32.4347 38.2347 32.4601 37.9665 32.372 37.8495C32.2838 37.7325 32.1861 37.9047 32.1547 38.2323ZM33.0362 38.6711C33.0016 39.0332 33.0645 39.1167 33.1965 38.8841C33.3161 38.6735 33.3416 38.4052 33.2534 38.2883C33.1653 38.1713 33.0676 38.3434 33.0362 38.6711ZM31.9195 39.7668C31.8832 40.0316 32.0038 40.1821 32.1875 40.1008C32.3713 40.0195 32.5396 39.8223 32.5616 39.6622C32.5835 39.5021 32.4629 39.352 32.2935 39.3282C32.1241 39.3044 31.9558 39.5019 31.9195 39.7668ZM31.7076 41.3121C31.6712 41.577 31.7918 41.7275 31.9756 41.6462C32.1594 41.5648 32.3277 41.3676 32.3497 41.2076C32.3716 41.0475 32.251 40.8973 32.0816 40.8735C31.9122 40.8497 31.7439 41.0472 31.7076 41.3121ZM21.1825 40.6036C21.1242 41.0285 21.1703 41.2123 21.2847 41.0117C21.3995 40.8114 21.4471 40.4637 21.3907 40.239C21.3345 40.0147 21.2408 40.1786 21.1825 40.6036ZM31.7811 42.3276C31.6891 42.4448 31.535 43.1332 31.4389 43.8575C31.2956 44.9345 31.3487 45.1216 31.7313 44.8839C32.2497 44.5616 32.4663 43.7626 32.0509 43.7043C31.9049 43.6838 31.8993 43.3286 32.0386 42.915C32.28 42.1983 32.1377 41.874 31.7811 42.3276ZM23.6892 42.562C23.6683 42.715 24.2054 42.918 24.8829 43.0131C26.487 43.2383 26.5471 42.7887 24.951 42.5029C24.2779 42.3822 23.7102 42.409 23.6892 42.562ZM21.06 43.6051C21.0254 43.9673 21.0883 44.0508 21.2203 43.8182C21.3399 43.6076 21.3654 43.3393 21.2773 43.2223C21.1891 43.1054 21.0914 43.2775 21.06 43.6051ZM31.499 45.5799C30.9689 45.9821 30.8578 46.6869 31.3139 46.751C31.5387 46.7825 31.4872 46.9586 31.1664 47.2541C30.7453 47.6423 30.7417 47.696 31.1429 47.6225C31.4198 47.5719 31.7058 47.0747 31.8406 46.4094C32.0959 45.1502 32.0886 45.1325 31.499 45.5799ZM23.9529 44.686C24.4969 44.8323 25.3285 44.9478 25.801 44.9423C26.2736 44.9365 25.8283 44.8166 24.8118 44.6758C23.7954 44.5347 23.409 44.5394 23.9529 44.686ZM22.509 46.0143C22.2164 46.2365 22.6089 48.119 23.0783 48.745C23.4303 49.2137 23.4655 49.1761 23.3946 48.4095C23.2951 47.3339 22.9714 45.8949 22.8242 45.8742C22.7635 45.8657 22.6218 45.9287 22.509 46.0143ZM23.7194 47.3387C23.8265 47.917 24.0852 48.6265 24.2944 48.9157C24.6277 49.3764 24.6744 49.285 24.6714 48.1811C24.6682 46.9521 24.6724 46.9467 24.8436 47.969C25.0769 49.3623 25.3918 49.3548 25.3241 47.9577C25.2924 47.3012 25.3939 46.865 25.5725 46.89C25.7388 46.9134 25.8564 47.3904 25.8339 47.9505C25.7795 49.2877 26.3602 49.2101 26.6725 47.8386L26.9175 46.7638L23.5249 46.2876L23.7194 47.3387ZM27.0389 48.1197C26.9118 49.239 26.9425 49.3265 27.2419 48.6994C27.7495 47.637 27.8512 46.8949 27.4962 46.8451C27.3268 46.8213 27.121 47.395 27.0389 48.1197ZM27.9052 48.005C27.7543 48.5902 27.7418 49.0846 27.8773 49.1036C28.0125 49.1226 28.1599 48.8715 28.2046 48.5454C28.2493 48.2193 28.4002 47.7444 28.5399 47.4899C28.6796 47.2355 28.6556 47.0078 28.4865 46.9841C28.3178 46.9604 28.0561 47.4198 27.9052 48.005ZM28.8293 47.7781C28.635 48.2476 28.5389 48.7152 28.6156 48.817C28.8294 49.1006 29.2689 48.1479 29.2235 47.4996C29.1934 47.0754 29.0898 47.1488 28.8293 47.7781ZM31.0619 48.3092C31.0372 48.4891 31.1674 48.5701 31.3512 48.4888C31.5349 48.4074 31.6937 48.2798 31.704 48.2047C31.7143 48.1296 31.5841 48.0489 31.4147 48.0252C31.2454 48.0014 31.0866 48.1294 31.0619 48.3092ZM22.3684 49.9054C22.8658 50.3362 26.1454 50.7966 27.2955 50.597C27.8206 50.506 27.0323 50.2986 25.0234 49.9993C22.9336 49.688 22.0825 49.6577 22.3684 49.9054Z" fill="#232323"/>
<path d="M59.6432 42.5594H53.9339L47.3609 8.58H51.583L56.8605 38.2877L62.5698 8.58H66.6959L59.6432 42.5594Z" fill="#232323"/>
<path d="M71.957 12.9488V8.58H76.5148V12.9488H71.957ZM72.1969 42.5594V18.2884H76.275V42.5594H72.1969Z" fill="#232323"/>
<path d="M83.957 18.2884H87.7952V19.4534C88.7868 18.6767 90.0662 18.2884 91.6334 18.2884H92.8809C95.4717 18.2884 97.3908 18.9033 98.6382 20.133C99.9176 21.3627 100.557 23.3367 100.557 26.0551V42.5594H96.4792V25.0843C96.4792 24.1134 96.1913 23.3529 95.6156 22.8028C95.0718 22.2203 94.3202 21.929 93.3606 21.929H91.1537C90.0982 21.929 89.3145 22.2203 88.8028 22.8028C88.291 23.3529 88.0351 23.9516 88.0351 24.5988V42.5594H83.957V18.2884Z" fill="#232323"/>
<path d="M124.449 34.7926C124.449 37.511 123.777 39.485 122.434 40.7148C121.123 41.9445 119.076 42.5594 116.293 42.5594H115.669C112.886 42.5594 110.823 41.9445 109.48 40.7148C108.169 39.485 107.513 37.511 107.513 34.7926V26.0551C107.513 23.3367 108.169 21.3627 109.48 20.133C110.823 18.9033 112.886 18.2884 115.669 18.2884H116.293C119.076 18.2884 121.123 18.9033 122.434 20.133C123.777 21.3627 124.449 23.3367 124.449 26.0551V34.7926ZM120.371 25.0843C120.371 24.0811 120.067 23.3044 119.459 22.7542C118.852 22.2041 117.956 21.929 116.773 21.929H115.189C114.006 21.929 113.11 22.2041 112.503 22.7542C111.895 23.3044 111.591 24.0811 111.591 25.0843V35.7635C111.591 36.7667 111.895 37.5434 112.503 38.0935C113.11 38.6436 114.006 38.9187 115.189 38.9187H116.773C117.956 38.9187 118.852 38.6436 119.459 38.0935C120.067 37.5434 120.371 36.7667 120.371 35.7635V25.0843Z" fill="#232323"/>
<path d="M141.17 42.5594H135.269L128.792 18.2884H133.158L138.339 39.1129L143.377 18.2884H147.599L141.17 42.5594Z" fill="#232323"/>
<path d="M167.266 42.5594C166.85 42.5594 166.386 42.4299 165.874 42.171C165.395 41.9121 164.979 41.5562 164.627 41.1031C163.891 42.0739 162.916 42.5594 161.7 42.5594H158.39C155.959 42.5594 154.184 42.0739 153.064 41.1031C151.977 40.0999 151.433 38.4009 151.433 36.0062V35.0354C151.433 30.0194 153.768 27.5114 158.438 27.5114H163.428V25.0843C163.428 24.0811 163.124 23.3044 162.516 22.7542C161.908 22.2041 161.013 21.929 159.829 21.929H153.352V18.2884H159.349C162.132 18.2884 164.179 18.9033 165.491 20.133C166.834 21.3627 167.506 23.3367 167.506 26.0551V37.7052C167.506 38.1906 167.682 38.5627 168.033 38.8216C168.417 39.0482 169.041 39.1614 169.905 39.1614V42.5594H167.266ZM161.221 38.9187C162.18 38.9187 162.788 38.6922 163.044 38.2391C163.3 37.7861 163.428 37.2036 163.428 36.4916V31.152H158.39C157.558 31.152 156.871 31.4271 156.327 31.9772C155.783 32.5274 155.511 33.2231 155.511 34.0645V36.4916C155.511 37.333 155.703 37.9479 156.087 38.3362C156.471 38.7245 157.078 38.9187 157.91 38.9187H161.221Z" fill="#232323"/>
<path d="M187.595 41.4429C186.54 42.1872 185.26 42.5594 183.757 42.5594H183.085C180.494 42.5594 178.559 41.9445 177.28 40.7148C176.033 39.485 175.409 37.511 175.409 34.7926V18.2884H179.487V35.7635C179.487 36.7343 179.759 37.511 180.303 38.0935C180.878 38.6436 181.646 38.9187 182.605 38.9187H184.237C185.26 38.9187 186.012 38.6598 186.492 38.142C187.003 37.6243 187.291 37.0418 187.355 36.3945V18.2884H191.433V42.5594H187.595V41.4429Z" fill="#232323"/>
<path d="M202.96 42.5594C201.873 42.5594 200.913 42.171 200.082 41.3943C199.282 40.6177 198.882 39.3879 198.882 37.7052V8.58H202.96V37.4625C202.96 37.9802 203.088 38.3524 203.344 38.5789C203.6 38.8054 204.032 38.9187 204.64 38.9187H205.599V42.5594H202.96Z" fill="#232323"/>
<path d="M216.394 42.5594C214.763 42.5594 213.515 42.0254 212.652 40.9575C211.788 39.8895 211.356 38.4818 211.356 36.7343V21.929H208.238V18.2884H211.356V12.4634H215.435V18.2884H221V21.929H215.435V36.977C215.435 37.689 215.61 38.1906 215.962 38.4818C216.314 38.7731 216.858 38.9187 217.594 38.9187H221V42.5594H216.394Z" fill="#232323"/>
</svg>
