<svg width="137" height="178" viewBox="0 0 137 178" fill="none" xmlns="http://www.w3.org/2000/svg">
<path fill-rule="evenodd" clip-rule="evenodd" d="M8.6381 4.67269C6.5596 5.82496 6.51413 6.22476 7.8619 11.5099C8.6491 14.5968 10.7682 28.5031 12.5702 42.412C15.6275 66.0008 15.785 68.6569 14.9206 81.9274C14.4106 89.7521 13.9484 100.242 13.8922 105.238C13.7548 117.654 18.0709 151.865 21.1212 162.531C23.2491 169.973 23.9641 171.307 26.8177 173.154C31.1393 175.951 33.7226 176.16 42.7381 174.445C51.8342 172.714 54.9356 170.904 57.1653 166.024C58.7854 162.476 58.7309 161.593 55.7076 142.443C51.3255 114.689 43.5034 87.3354 36.6535 75.8118C29.4417 63.6786 20.0669 23.9497 21.4567 11.4104C22.074 5.84289 22.0165 5.6183 19.5756 4.10395C16.8863 2.43435 12.2401 2.67579 8.6381 4.67269ZM9.78637 7.05607C9.90263 7.98079 10.6409 8.40199 11.5963 8.08838C14.025 7.29321 14.0749 4.93155 11.6569 5.23554C10.4385 5.38871 9.67074 6.13631 9.78637 7.05607ZM10.2138 10.4563C10.2824 11.002 11.0083 11.3643 11.8269 11.2614C12.6454 11.1585 13.259 10.6278 13.1904 10.0821C13.1218 9.5364 12.3959 9.17411 11.5774 9.27702C10.7588 9.37992 10.1452 9.91061 10.2138 10.4563ZM14.1826 9.95737C14.2512 10.5031 14.7538 10.8934 15.2995 10.8248C15.8452 10.7562 16.2356 10.2536 16.167 9.7079C16.0984 9.16219 15.5958 8.77184 15.0501 8.84044C14.5044 8.90905 14.114 9.41166 14.1826 9.95737ZM17.1592 9.58316C17.2278 10.1289 17.7304 10.5192 18.2761 10.4506C18.8218 10.382 19.2122 9.87939 19.1436 9.33369C19.0749 8.78798 18.5723 8.39763 18.0266 8.46624C17.4809 8.53484 17.0906 9.03746 17.1592 9.58316ZM12.6434 14.8304C12.6277 15.3071 13.4935 21.9369 14.5661 29.5627C16.9361 46.4187 18.2376 68.6278 17.9649 87.5919C17.6709 108.061 19.2867 132.843 21.8752 147.573C25.4628 167.98 25.1656 167.613 37.5446 166.998L44.9657 166.63L43.6448 154.304C42.9185 147.524 41.2231 134.519 39.8786 125.404C37.8094 111.382 37.6553 108.801 38.8797 108.648C40.6835 108.421 44.6296 103.14 43.5954 102.337C43.1775 102.012 41.6723 103.178 40.2516 104.929C37.3517 108.503 37.1607 108.339 35.2367 100.618C34.5775 97.9728 33.9177 95.7387 33.7708 95.6523C33.6239 95.566 30.7393 95.5658 27.3607 95.6519L21.2183 95.8093L21.2465 101.068C21.2633 103.959 21.9807 112.359 22.8423 119.735C24.1474 130.901 24.1565 132.417 22.9013 128.798C20.8597 122.916 19.7796 106.123 20.0711 84.8075C20.204 75.09 20.2473 65.3334 20.1674 63.1261C20.0392 59.5411 20.1012 59.6411 20.7545 64.0602C21.157 66.7812 21.3928 74.6211 21.2807 81.4816C21.0512 95.41 20.8884 95.109 27.8733 93.7168C31.9262 92.909 32.1737 92.6652 32.3408 89.3122L32.5184 85.7623L33.062 89.0361C33.5556 92.0006 33.8609 92.2485 36.2957 91.6531C39.6956 90.8226 39.4798 89.7632 32.8933 74.9471C25.7994 58.9893 23.1552 49.8941 20.1549 31.1277C18.6993 22.0262 17.1598 14.6224 16.7351 14.6758C16.3094 14.7293 15.2207 14.5911 14.3158 14.3682C13.411 14.1453 12.6581 14.3539 12.6434 14.8304ZM19.062 45.6273C19.9882 52.9943 20.5228 55.988 20.2513 52.2809C19.9787 48.574 19.2208 42.5454 18.5673 38.8864C17.9128 35.2274 18.1359 38.2603 19.062 45.6273ZM30.5151 82.4866C30.6866 83.8508 30.9821 84.3811 31.1711 83.664C31.3612 82.9476 31.2209 81.8314 30.8593 81.1835C30.4987 80.5364 30.3436 81.1223 30.5151 82.4866ZM35.0812 96.0227C35.1498 96.5685 35.6257 96.9622 36.1396 96.8976C36.6536 96.8329 37.293 96.299 37.5617 95.7109C37.8304 95.1228 37.3536 94.7292 36.5033 94.8361C35.653 94.943 35.0126 95.477 35.0812 96.0227ZM38.3944 96.9306C36.8019 99.1193 36.3087 105.947 37.7553 105.765C37.9945 105.735 39.4161 104.272 40.9135 102.514C43.3094 99.7021 43.4758 99.013 42.2981 96.7966C40.6754 93.7421 40.7165 93.74 38.3944 96.9306ZM38.3095 100.321C37.9911 100.73 37.7888 101.526 37.8598 102.091C37.9379 102.712 38.3929 102.595 39.0149 101.794C39.5796 101.067 39.7818 100.271 39.4646 100.024C39.1474 99.7779 38.6269 99.9108 38.3095 100.321ZM41.2967 108.384C39.9368 110.242 39.0326 111.924 39.2872 112.122C40.1752 112.811 44.8399 107.242 44.3058 106.128C43.9886 105.465 42.7535 106.392 41.2967 108.384ZM41.7821 111.861C40.4099 113.412 39.4869 115.089 39.7311 115.589C40.2454 116.641 46.0461 111.089 45.873 109.712C45.684 108.208 44.4304 108.867 41.7821 111.861ZM42.8368 115.52C41.2207 116.935 39.9622 118.654 40.041 119.336C40.2786 121.403 41.63 120.576 44.7084 116.482C48.0103 112.09 47.2173 111.682 42.8368 115.52ZM43.8234 119.463C40.9236 122.597 39.6627 125.683 41.3702 125.468C42.4855 125.328 47.9447 119.464 48.298 118.026C48.9752 115.275 47.1607 115.858 43.8234 119.463ZM44.9016 124.032C40.7287 128.911 41.4231 131.412 45.8224 127.348L49.2086 124.219L45.9469 128.297C42.9159 132.087 42.7426 132.761 43.4951 137.809C43.9413 140.796 44.6067 143.203 44.9738 143.157C45.3409 143.111 47.199 141.223 49.1018 138.962C51.3747 136.262 52.092 134.752 51.193 134.56C50.4401 134.4 48.9411 135.335 47.8613 136.639C46.7815 137.943 45.4808 139.061 44.9706 139.123C44.4595 139.186 45.832 137.245 48.0205 134.811C52.7059 129.598 51.9077 127.666 46.9734 132.278L43.5669 135.461L46.7524 131.514C49.3154 128.339 49.8308 126.875 49.3917 124.031C49.0909 122.088 48.6001 120.541 48.3015 120.595C48.0018 120.648 46.4728 122.195 44.9016 124.032ZM47.6005 142.309C45.7314 144.429 44.4283 146.634 44.703 147.208C45.3369 148.531 52.8537 141.188 52.6363 139.458C52.3896 137.496 51.2953 138.115 47.6005 142.309ZM48.1606 147.116C46.2605 149.182 44.985 151.455 45.3254 152.166C45.7573 153.069 47.0589 152.166 49.6322 149.178C53.0852 145.17 54.0823 143 52.3573 143.252C51.9485 143.311 50.0607 145.05 48.1606 147.116ZM49.1233 151.599C46.9354 154.038 45.5306 156.34 46.002 156.715C46.4734 157.09 48.3342 155.656 50.137 153.53C52.7149 150.49 52.6006 150.783 49.6014 154.905C44.9022 161.363 45.6446 162.618 50.7302 156.814C53.7128 153.409 54.3301 152.002 53.7851 149.855L53.1012 147.164L49.1233 151.599ZM49.8138 159.473C45.4051 165.291 45.9617 166.103 50.7974 160.907C54.579 156.844 55.5806 154.926 53.8056 155.149C53.371 155.204 51.5746 157.149 49.8138 159.473ZM27.1894 169.536C27.2611 170.107 27.8789 170.508 28.5613 170.428C29.2447 170.348 31.6199 170.306 33.8408 170.334C36.5644 170.368 37.3565 170.144 36.2736 169.643C33.6731 168.439 27.0417 168.362 27.1894 169.536ZM30.6705 173.175C30.7391 173.721 31.2685 174.108 31.8459 174.036C32.4234 173.963 32.5647 173.492 32.1588 172.988C31.7528 172.485 31.2244 172.098 30.9833 172.128C30.7422 172.159 30.6019 172.63 30.6705 173.175Z" fill="#232323"/>
<path fill-rule="evenodd" clip-rule="evenodd" d="M96.806 3.57183C93.2996 4.53749 93.2032 4.6882 93.3593 8.9504C93.4475 11.3624 92.1888 23.3033 90.5616 35.4863L87.604 57.6375L81.0922 68.7973C77.5111 74.9356 73.4177 83.3666 71.995 87.5328C66.4239 103.856 62.3211 148.934 65.7528 156.114C66.4515 157.576 69.0094 160.108 71.4366 161.742C75.2982 164.341 77.371 164.923 88.0214 166.401C98.976 167.921 100.735 167.909 105.614 166.278C108.941 165.166 111.715 163.436 112.798 161.799C114.98 158.497 119.966 127.529 121.304 108.975C122.34 94.5887 121.579 89.2355 116.836 77.589C115.01 73.1054 112.561 65.6125 111.393 60.9381C109.429 53.0778 109.382 51.1587 110.774 35.4069C111.701 24.9039 112.782 17.4599 113.592 15.9899C114.316 14.6782 115.146 11.8799 115.439 9.77201C115.923 6.28367 115.694 5.84267 112.888 4.86993C107.77 3.09529 100.627 2.51964 96.806 3.57183ZM101.386 6.73525C101.31 7.28864 102.388 7.89973 103.783 8.09324C105.177 8.28674 106.381 7.9923 106.458 7.43891C106.535 6.88552 105.456 6.27443 104.062 6.08093C102.667 5.88742 101.463 6.18187 101.386 6.73525ZM110.846 9.96136C110.312 10.602 110.111 11.4356 110.4 11.8141C111.183 12.8406 112.356 11.6538 112.068 10.1268C111.867 9.05696 111.628 9.02375 110.846 9.96136ZM96.7707 10.197C96.5457 11.8189 97.1681 12.3031 99.9757 12.6927C104.139 13.2704 108.88 12.3395 109.079 10.9047C109.16 10.3151 106.615 9.51174 103.136 9.02903C97.7265 8.27851 97.0189 8.40801 96.7707 10.197ZM102.387 18.1548L98.2595 18.0949L97.2125 25.6411L96.1656 33.1873L100.207 33.423C107.274 33.8343 108.066 33.1093 109.161 25.212C110.292 17.0611 108.559 15.2618 107.207 23.182L106.309 28.4414L106.411 23.328L106.514 18.2146L102.387 18.1548ZM100.788 35.0931C98.375 34.9747 96.6069 35.3416 96.8592 35.9078C97.5988 37.5662 104.914 38.1484 106.537 36.6773C107.725 35.6002 107.735 35.3401 106.592 35.3261C105.814 35.3166 103.201 35.2115 100.788 35.0931ZM99.2294 39.0476L94.8746 38.7665L94.2043 43.4853C93.3515 49.4903 90.3069 57.2916 83.2411 71.5721C73.2891 91.6853 72.3338 95.061 69.2677 120.96C67.4402 136.397 66.8165 145.259 67.3659 147.968C68.561 153.862 73.5494 159.778 77.8247 160.371C80.6963 160.77 81.1806 160.543 80.7783 158.987C80.5129 157.963 80.0721 155.597 79.7989 153.728C79.3746 150.833 78.7302 150.157 75.4397 149.157C73.2366 148.486 71.3908 147.237 71.1414 146.248C70.9016 145.294 71.9051 134.015 73.3723 121.182L76.0397 97.8509L79.5642 97.7379C81.5031 97.6756 90.2973 98.4856 99.1073 99.5387C113.567 101.265 115.149 101.28 115.369 99.6906C115.845 96.2646 117.237 98.2115 116.998 101.968C116.864 104.065 116.692 106.809 116.615 108.068C116.537 109.326 116.767 110.396 117.126 110.446C118.142 110.587 119.707 107.287 118.828 106.858C118.398 106.646 118.548 104.005 119.162 100.988C120.454 94.6306 120.052 94.3656 112.742 96.7623C108.439 98.1732 106.283 98.1633 96.1433 96.6847C89.734 95.7493 83.5476 94.4295 82.3959 93.7518C80.9632 92.908 84.2091 93.0599 92.6675 94.2334C102.262 95.5646 106.179 95.6835 110.146 94.7644C116.329 93.3322 116.328 93.4592 110.258 78.2597C105.339 65.9446 103.556 58.3679 104.385 53.2999C104.853 50.44 104.987 50.795 105.114 55.2202C105.29 61.3958 107.456 68.2372 113.038 80.2411C115.169 84.8235 116.84 89.0928 116.751 89.7297C116.663 90.3656 117.047 90.9501 117.605 91.0275C119.306 91.2635 118.974 89.914 115.338 81.8247C108.456 66.5146 106.716 59.0021 106.786 44.9161L106.816 38.7671L105.554 43.2069C104.317 47.5547 104.299 47.5696 104.654 43.9116C105.079 39.5434 104.938 39.4171 99.2294 39.0476ZM113.692 104.329C113.577 105.159 113.939 105.902 114.497 105.979C115.055 106.056 115.605 105.441 115.721 104.611C115.836 103.78 115.474 103.038 114.916 102.961C114.358 102.883 113.807 103.499 113.692 104.329ZM77.2958 103.894C75.8148 110.15 73.3166 140.681 74.0337 143.769C74.5772 146.111 75.3513 146.478 83.5069 148.262C90.5919 149.811 93.0415 149.972 95.6221 149.062C97.4008 148.433 99.6286 148.024 100.572 148.151C101.516 148.279 102.639 147.963 103.067 147.449C103.496 146.935 104.307 146.893 104.869 147.354C105.488 147.864 104.918 148.406 103.423 148.731C100.391 149.389 100.852 150.375 104.019 150.006C106.299 149.741 106.341 149.562 109.419 126.953L112.521 104.167L95.4382 101.797L78.354 99.4262L77.2958 103.894ZM113.764 107.858C113.371 108.328 113.475 109.061 113.993 109.488C114.512 109.914 115.034 109.557 115.154 108.695C115.399 106.927 114.827 106.583 113.764 107.858ZM89.5519 105.326C92.4701 105.939 97.0348 106.57 99.6956 106.729C102.356 106.887 99.9665 106.386 94.3875 105.614C88.8083 104.843 86.6324 104.714 89.5519 105.326ZM116.624 113.001C116.505 113.863 116.902 114.353 117.507 114.088C118.112 113.823 118.667 113.181 118.739 112.66C118.811 112.139 118.414 111.65 117.856 111.573C117.298 111.495 116.744 112.138 116.624 113.001ZM89.3536 109.333C87.1045 109.485 86.8693 109.907 86.7683 113.965C86.6981 116.804 87.5069 119.767 88.9874 122.099C91.0908 125.411 91.1869 126.298 89.9756 131.214C88.9624 135.327 88.0045 137.007 86.0583 138.084C82.7079 139.938 84.1854 142.179 89.2174 142.877C94.3773 143.593 96.2751 141.815 93.3959 138.96C91.7491 137.328 90.8878 137.015 90.2118 137.805C88.8335 139.415 89.3652 136.641 91.7193 129.935C92.832 126.765 94.9751 122.817 96.4807 121.16C99.1318 118.245 101.807 112.728 101.05 111.736C100.41 110.897 91.943 109.157 89.3536 109.333ZM113.511 113.082C113.43 113.667 113.859 113.931 114.464 113.666C115.07 113.401 115.592 112.986 115.626 112.741C115.66 112.497 115.231 112.234 114.674 112.157C114.116 112.079 113.593 112.496 113.511 113.082ZM92.3763 110.795C93.318 111.184 94.9145 111.406 95.9265 111.288C96.9383 111.171 96.1678 110.853 94.2152 110.582C92.2626 110.311 91.4346 110.407 92.3763 110.795ZM107.35 120.968C106.797 125.358 106.367 131.489 106.394 134.595C106.426 138.247 106.894 135.595 107.719 127.087C109.139 112.443 108.908 108.604 107.35 120.968ZM87.6149 113.445C87.2483 116.087 90.5018 121.109 92.786 121.426C93.8612 121.575 94.8015 121.259 94.8759 120.722C94.9502 120.187 94.3672 119.896 93.5801 120.077C92.793 120.258 91.7168 119.714 91.188 118.868C90.4054 117.616 90.7525 117.484 93.0622 118.154C95.189 118.771 96.3882 118.452 97.8664 116.873C98.9502 115.716 99.8809 114.455 99.9345 114.068C99.988 113.683 97.2948 112.975 93.9498 112.494C88.7417 111.746 87.8315 111.883 87.6149 113.445ZM77.7228 120.362C76.9934 125.619 76.8663 127.794 77.44 125.194C78.0138 122.594 78.6104 118.293 78.7662 115.635C78.922 112.977 78.4522 115.105 77.7228 120.362ZM112.953 117.106C112.872 117.692 113.3 117.955 113.906 117.691C114.511 117.426 115.034 117.01 115.068 116.766C115.102 116.521 114.673 116.259 114.115 116.181C113.557 116.104 113.034 116.521 112.953 117.106ZM116.004 117.469C115.927 118.022 116.321 118.538 116.879 118.616C117.437 118.693 117.956 118.304 118.033 117.75C118.11 117.197 117.716 116.681 117.158 116.604C116.6 116.526 116.081 116.916 116.004 117.469ZM116.056 121.441C115.521 122.081 115.321 122.915 115.61 123.294C116.393 124.32 117.566 123.133 117.278 121.606C117.077 120.536 116.837 120.503 116.056 121.441ZM112.858 125.834C112.744 127.013 112.951 127.285 113.386 126.528C113.78 125.842 113.864 124.969 113.573 124.588C113.283 124.208 112.961 124.768 112.858 125.834ZM115.761 127.263C115.647 128.442 115.854 128.714 116.289 127.957C116.683 127.271 116.767 126.397 116.477 126.017C116.186 125.636 115.864 126.196 115.761 127.263ZM112.083 130.83C111.963 131.692 112.36 132.182 112.966 131.918C113.571 131.653 114.125 131.011 114.198 130.49C114.27 129.968 113.873 129.48 113.315 129.402C112.757 129.325 112.202 129.968 112.083 130.83ZM111.385 135.861C111.265 136.723 111.662 137.213 112.268 136.948C112.873 136.684 113.427 136.042 113.5 135.52C113.572 134.999 113.175 134.51 112.617 134.433C112.059 134.355 111.504 134.998 111.385 135.861ZM76.7174 133.554C76.5255 134.938 76.6771 135.536 77.0541 134.883C77.432 134.231 77.5891 133.099 77.4031 132.367C77.2181 131.637 76.9094 132.171 76.7174 133.554ZM111.627 139.167C111.324 139.548 110.817 141.789 110.5 144.147C110.028 147.654 110.203 148.263 111.463 147.489C113.171 146.44 113.884 143.838 112.516 143.649C112.035 143.582 112.016 142.426 112.475 141.079C113.27 138.746 112.802 137.69 111.627 139.167ZM84.9741 139.93C84.905 140.428 86.6742 141.089 88.9057 141.398C94.1893 142.131 94.3872 140.668 89.13 139.737C86.9131 139.345 85.0432 139.432 84.9741 139.93ZM76.3138 143.326C76.1999 144.505 76.4072 144.776 76.842 144.019C77.2359 143.334 77.3199 142.46 77.0295 142.08C76.7391 141.699 76.4173 142.259 76.3138 143.326ZM110.698 149.755C108.952 151.064 108.586 153.359 110.088 153.567C110.829 153.67 110.659 154.243 109.602 155.205C108.215 156.469 108.204 156.644 109.525 156.404C110.437 156.24 111.379 154.621 111.823 152.455C112.664 148.356 112.64 148.298 110.698 149.755ZM85.8426 146.844C87.6343 147.321 90.3735 147.697 91.9299 147.679C93.4864 147.66 92.0197 147.27 88.6716 146.811C85.3237 146.352 84.051 146.367 85.8426 146.844ZM81.0865 151.169C80.1229 151.892 81.4158 158.021 82.9619 160.059C84.1211 161.584 84.2373 161.462 84.0036 158.966C83.6757 155.465 82.6095 150.78 82.1247 150.713C81.9249 150.685 81.4581 150.89 81.0865 151.169ZM85.0734 155.48C85.4263 157.363 86.2782 159.673 86.9674 160.614C88.0651 162.114 88.2191 161.817 88.209 158.223C88.1986 154.222 88.2124 154.204 88.7762 157.532C89.5447 162.068 90.5819 162.044 90.359 157.496C90.2544 155.358 90.589 153.938 91.1773 154.02C91.725 154.096 92.1122 155.649 92.0381 157.472C91.8591 161.825 93.7716 161.573 94.8004 157.108L95.6074 153.609L90.0195 152.834L84.4327 152.059L85.0734 155.48ZM96.0072 158.023C95.5884 161.667 95.6895 161.952 96.6757 159.91C98.3477 156.451 98.6828 154.036 97.5133 153.873C96.9555 153.796 96.2776 155.664 96.0072 158.023ZM98.8607 157.65C98.3637 159.555 98.3224 161.164 98.7687 161.226C99.214 161.288 99.6996 160.47 99.8469 159.409C99.9941 158.347 100.491 156.801 100.951 155.973C101.411 155.144 101.332 154.403 100.775 154.326C100.22 154.249 99.3576 155.744 98.8607 157.65ZM101.904 156.911C101.264 158.44 100.948 159.962 101.201 160.293C101.905 161.216 103.352 158.115 103.203 156.004C103.104 154.623 102.762 154.862 101.904 156.911ZM109.258 158.64C109.177 159.226 109.606 159.489 110.211 159.224C110.816 158.96 111.339 158.544 111.373 158.3C111.407 158.055 110.978 157.793 110.42 157.715C109.862 157.638 109.339 158.054 109.258 158.64ZM80.6234 163.836C82.2618 165.239 93.0643 166.738 96.8525 166.088C98.5819 165.792 95.9855 165.117 89.3686 164.142C82.4853 163.129 79.6818 163.03 80.6234 163.836Z" fill="#232323"/>
</svg>
