<svg width="128" height="128" viewBox="0 0 128 128" fill="none" xmlns="http://www.w3.org/2000/svg">
<path fill-rule="evenodd" clip-rule="evenodd" d="M85.3443 25.3917C62.1379 39.3424 33.3562 56.6198 21.3852 63.7856C9.41426 70.9514 -0.207563 77.0129 0.0034041 77.2552C0.214372 77.4975 5.64707 79.0493 12.0759 80.7034C18.5047 82.3574 24.1318 83.8599 24.5805 84.0422C25.1445 84.2716 24.3525 85.7241 22.0147 88.7484L18.633 93.1222L21.4839 91.1101C23.0519 90.0029 25.4027 88.1873 26.7085 87.0743L29.0821 85.0515L34.9761 86.1901C38.2176 86.8163 41.2401 87.4696 41.6923 87.6412C42.2328 87.847 40.2811 90.8027 35.9905 96.2774C32.4023 100.855 29.8513 104.267 30.3217 103.86C30.7921 103.453 34.638 99.9507 38.8682 96.0765C43.0984 92.203 49.1856 86.852 52.3952 84.1858C55.6053 81.5189 61.4531 76.2766 65.3913 72.5361C69.329 68.7956 72.6463 65.7348 72.7632 65.7348C72.8801 65.7348 70.5389 68.8706 67.5603 72.7041C64.5823 76.5375 60.0145 82.7291 57.4105 86.4639C54.8059 90.1987 51.2178 95.0236 49.4359 97.1859C47.6541 99.3481 44.3562 103.665 42.1079 106.778L38.0192 112.439L46.6648 104.018C51.4202 99.386 55.4246 95.5518 55.5631 95.4975C56.0079 95.3238 63.9625 103.881 63.9625 104.533C63.9625 104.878 62.4064 107.548 60.5049 110.466C58.6028 113.383 57.1511 115.771 57.2782 115.771C57.4054 115.771 59.6365 113.686 62.2365 111.139L66.9645 106.508L69.0268 108.538C70.1615 109.653 75.5714 114.489 81.0491 119.283L91.0085 128L91.6739 125.638C92.04 124.339 96.1983 110.088 100.915 93.9693C112.703 53.6862 124.151 14.5161 126.453 6.58547C127.509 2.94858 128.185 -0.0142444 127.955 5.15178e-05C127.725 0.0150622 108.551 11.4411 85.3443 25.3917ZM65.8429 42.3481C35.674 60.4904 11.0741 75.4396 11.1773 75.5683C11.6186 76.1222 37.3121 82.1422 41.7122 82.7227L46.5457 83.361L51.9755 78.7577C58.0309 73.6233 67.7599 64.4804 77.6468 54.6312C83.9747 48.3281 98.5463 34.6441 105.016 28.93C107.892 26.3889 108.031 26.3331 106.695 28.2559C105.894 29.4089 103.341 33.0865 101.021 36.4282C98.7008 39.7699 88.8219 52.6362 79.0672 65.02C69.3125 77.4039 60.7677 88.5526 60.0784 89.7956L58.8257 92.055L61.4959 95.0014C66.4986 100.522 87.9221 120.08 88.9279 120.045C89.2232 120.035 110.002 49.6912 121.456 9.92571C121.561 9.56259 121.432 9.2881 121.171 9.31455C120.909 9.341 96.0118 24.2066 65.8429 42.3481ZM22.5136 111.101C21.6338 112.072 21.1897 112.876 21.5272 112.888C21.8642 112.901 22.7428 112.107 23.4795 111.124C25.2009 108.827 24.5891 108.813 22.5136 111.101ZM50.846 123.279C50.111 124.26 49.7706 125.063 50.0905 125.063C50.8186 125.063 52.8411 122.319 52.4625 121.845C52.3091 121.652 51.5815 122.297 50.846 123.279Z" fill="#4F5E5B"/>
</svg>
