<svg width="354" height="286" viewBox="0 0 354 286" fill="none" xmlns="http://www.w3.org/2000/svg">
<path fill-rule="evenodd" clip-rule="evenodd" d="M117.632 4.67269C115.553 5.82496 115.508 6.22476 116.856 11.5099C117.643 14.5968 119.762 28.5031 121.564 42.412C124.621 66.0008 124.779 68.6569 123.914 81.9274C123.404 89.7521 122.942 100.242 122.886 105.238C122.748 117.654 127.065 151.865 130.115 162.531C132.243 169.973 132.958 171.307 135.811 173.154C140.133 175.951 142.716 176.16 151.732 174.445C160.828 172.714 163.929 170.904 166.159 166.024C167.779 162.476 167.725 161.593 164.701 142.443C160.319 114.689 152.497 87.3354 145.647 75.8118C138.435 63.6786 129.061 23.9497 130.45 11.4104C131.068 5.84289 131.01 5.6183 128.569 4.10395C125.88 2.43435 121.234 2.67579 117.632 4.67269ZM118.78 7.05607C118.896 7.98079 119.635 8.40199 120.59 8.08838C123.019 7.29321 123.069 4.93155 120.651 5.23554C119.432 5.38871 118.664 6.13631 118.78 7.05607ZM119.207 10.4563C119.276 11.002 120.002 11.3643 120.821 11.2614C121.639 11.1585 122.253 10.6278 122.184 10.0821C122.115 9.5364 121.39 9.17411 120.571 9.27702C119.752 9.37992 119.139 9.91061 119.207 10.4563ZM123.176 9.95737C123.245 10.5031 123.747 10.8934 124.293 10.8248C124.839 10.7562 125.229 10.2536 125.161 9.7079C125.092 9.16219 124.589 8.77184 124.044 8.84044C123.498 8.90905 123.108 9.41166 123.176 9.95737ZM126.153 9.58316C126.221 10.1289 126.724 10.5192 127.27 10.4506C127.815 10.382 128.206 9.87939 128.137 9.33369C128.069 8.78798 127.566 8.39763 127.02 8.46624C126.475 8.53484 126.084 9.03746 126.153 9.58316ZM121.637 14.8304C121.621 15.3071 122.487 21.9369 123.56 29.5627C125.93 46.4187 127.231 68.6278 126.959 87.5919C126.665 108.061 128.28 132.843 130.869 147.573C134.456 167.98 134.159 167.613 146.538 166.998L153.959 166.63L152.638 154.304C151.912 147.524 150.217 134.519 148.872 125.404C146.803 111.382 146.649 108.801 147.873 108.648C149.677 108.421 153.623 103.14 152.589 102.337C152.171 102.012 150.666 103.178 149.245 104.929C146.345 108.503 146.154 108.339 144.23 100.618C143.571 97.9728 142.911 95.7387 142.764 95.6523C142.618 95.566 139.733 95.5658 136.354 95.6519L130.212 95.8093L130.24 101.068C130.257 103.959 130.974 112.359 131.836 119.735C133.141 130.901 133.15 132.417 131.895 128.798C129.853 122.916 128.773 106.123 129.065 84.8075C129.198 75.09 129.241 65.3334 129.161 63.1261C129.033 59.5411 129.095 59.6411 129.748 64.0602C130.151 66.7812 130.386 74.6211 130.274 81.4816C130.045 95.41 129.882 95.109 136.867 93.7168C140.92 92.909 141.167 92.6652 141.334 89.3122L141.512 85.7623L142.056 89.0361C142.549 92.0006 142.855 92.2485 145.289 91.6531C148.689 90.8226 148.473 89.7632 141.887 74.9471C134.793 58.9893 132.149 49.8941 129.149 31.1277C127.693 22.0262 126.153 14.6224 125.729 14.6758C125.303 14.7293 124.214 14.5911 123.309 14.3682C122.405 14.1453 121.652 14.3539 121.637 14.8304ZM128.056 45.6273C128.982 52.9943 129.516 55.988 129.245 52.2809C128.972 48.574 128.214 42.5454 127.561 38.8864C126.906 35.2274 127.13 38.2603 128.056 45.6273ZM139.509 82.4866C139.68 83.8508 139.976 84.3811 140.165 83.664C140.355 82.9476 140.215 81.8314 139.853 81.1835C139.492 80.5364 139.337 81.1223 139.509 82.4866ZM144.075 96.0227C144.143 96.5685 144.619 96.9622 145.133 96.8976C145.647 96.8329 146.287 96.299 146.555 95.7109C146.824 95.1228 146.347 94.7292 145.497 94.8361C144.647 94.943 144.006 95.477 144.075 96.0227ZM147.388 96.9306C145.796 99.1193 145.302 105.947 146.749 105.765C146.988 105.735 148.41 104.272 149.907 102.514C152.303 99.7021 152.469 99.013 151.292 96.7966C149.669 93.7421 149.71 93.74 147.388 96.9306ZM147.303 100.321C146.985 100.73 146.782 101.526 146.853 102.091C146.932 102.712 147.387 102.595 148.009 101.794C148.573 101.067 148.775 100.271 148.458 100.024C148.141 99.7779 147.621 99.9108 147.303 100.321ZM150.29 108.384C148.93 110.242 148.026 111.924 148.281 112.122C149.169 112.811 153.834 107.242 153.299 106.128C152.982 105.465 151.747 106.392 150.29 108.384ZM150.776 111.861C149.404 113.412 148.481 115.089 148.725 115.589C149.239 116.641 155.04 111.089 154.867 109.712C154.678 108.208 153.424 108.867 150.776 111.861ZM151.83 115.52C150.214 116.935 148.956 118.654 149.035 119.336C149.272 121.403 150.624 120.576 153.702 116.482C157.004 112.09 156.211 111.682 151.83 115.52ZM152.817 119.463C149.917 122.597 148.656 125.683 150.364 125.468C151.479 125.328 156.938 119.464 157.292 118.026C157.969 115.275 156.154 115.858 152.817 119.463ZM153.895 124.032C149.722 128.911 150.417 131.412 154.816 127.348L158.202 124.219L154.941 128.297C151.91 132.087 151.736 132.761 152.489 137.809C152.935 140.796 153.6 143.203 153.967 143.157C154.335 143.111 156.193 141.223 158.095 138.962C160.368 136.262 161.086 134.752 160.187 134.56C159.434 134.4 157.935 135.335 156.855 136.639C155.775 137.943 154.474 139.061 153.964 139.123C153.453 139.186 154.826 137.245 157.014 134.811C161.7 129.598 160.901 127.666 155.967 132.278L152.561 135.461L155.746 131.514C158.309 128.339 158.824 126.875 158.385 124.031C158.085 122.088 157.594 120.541 157.295 120.595C156.995 120.648 155.466 122.195 153.895 124.032ZM156.594 142.309C154.725 144.429 153.422 146.634 153.697 147.208C154.331 148.531 161.847 141.188 161.63 139.458C161.383 137.496 160.289 138.115 156.594 142.309ZM157.154 147.116C155.254 149.182 153.979 151.455 154.319 152.166C154.751 153.069 156.053 152.166 158.626 149.178C162.079 145.17 163.076 143 161.351 143.252C160.942 143.311 159.054 145.05 157.154 147.116ZM158.117 151.599C155.929 154.038 154.524 156.34 154.996 156.715C155.467 157.09 157.328 155.656 159.131 153.53C161.709 150.49 161.594 150.783 158.595 154.905C153.896 161.363 154.638 162.618 159.724 156.814C162.706 153.409 163.324 152.002 162.779 149.855L162.095 147.164L158.117 151.599ZM158.807 159.473C154.399 165.291 154.955 166.103 159.791 160.907C163.573 156.844 164.574 154.926 162.799 155.149C162.365 155.204 160.568 157.149 158.807 159.473ZM136.183 169.536C136.255 170.107 136.873 170.508 137.555 170.428C138.238 170.348 140.614 170.306 142.834 170.334C145.558 170.368 146.35 170.144 145.267 169.643C142.667 168.439 136.035 168.362 136.183 169.536ZM139.664 173.175C139.733 173.721 140.262 174.108 140.84 174.036C141.417 173.963 141.558 173.492 141.152 172.988C140.746 172.485 140.218 172.098 139.977 172.128C139.736 172.159 139.596 172.63 139.664 173.175Z" fill="#F4F4F4"/>
<path fill-rule="evenodd" clip-rule="evenodd" d="M205.8 3.57183C202.293 4.53749 202.197 4.6882 202.353 8.9504C202.441 11.3624 201.182 23.3033 199.555 35.4863L196.598 57.6375L190.086 68.7973C186.505 74.9356 182.411 83.3666 180.989 87.5328C175.418 103.856 171.315 148.934 174.747 156.114C175.445 157.576 178.003 160.108 180.43 161.742C184.292 164.341 186.365 164.923 197.015 166.401C207.97 167.921 209.729 167.909 214.607 166.278C217.935 165.166 220.709 163.436 221.792 161.799C223.973 158.497 228.959 127.529 230.297 108.975C231.334 94.5887 230.572 89.2355 225.83 77.589C224.004 73.1054 221.554 65.6125 220.386 60.9381C218.423 53.0778 218.376 51.1587 219.768 35.4069C220.694 24.9039 221.776 17.4599 222.586 15.9899C223.309 14.6782 224.14 11.8799 224.433 9.77201C224.917 6.28367 224.687 5.84267 221.882 4.86993C216.764 3.09529 209.621 2.51964 205.8 3.57183ZM210.38 6.73525C210.303 7.28864 211.382 7.89973 212.776 8.09324C214.171 8.28674 215.375 7.9923 215.452 7.43891C215.528 6.88552 214.45 6.27443 213.055 6.08093C211.661 5.88742 210.457 6.18187 210.38 6.73525ZM219.84 9.96136C219.305 10.602 219.105 11.4356 219.394 11.8141C220.176 12.8406 221.35 11.6538 221.062 10.1268C220.861 9.05696 220.621 9.02375 219.84 9.96136ZM205.764 10.197C205.539 11.8189 206.162 12.3031 208.969 12.6927C213.133 13.2704 217.873 12.3395 218.072 10.9047C218.154 10.3151 215.609 9.51174 212.129 9.02903C206.72 8.27851 206.013 8.40801 205.764 10.197ZM211.38 18.1548L207.253 18.0949L206.206 25.6411L205.159 33.1873L209.201 33.423C216.268 33.8343 217.059 33.1093 218.155 25.212C219.286 17.0611 217.553 15.2618 216.2 23.182L215.302 28.4414L215.405 23.328L215.507 18.2146L211.38 18.1548ZM209.782 35.0931C207.369 34.9747 205.601 35.3416 205.853 35.9078C206.592 37.5662 213.908 38.1484 215.53 36.6773C216.719 35.6002 216.729 35.3401 215.585 35.3261C214.807 35.3166 212.195 35.2115 209.782 35.0931ZM208.223 39.0476L203.868 38.7665L203.198 43.4853C202.345 49.4903 199.301 57.2916 192.235 71.5721C182.283 91.6853 181.327 95.061 178.261 120.96C176.434 136.397 175.81 145.259 176.36 147.968C177.555 153.862 182.543 159.778 186.818 160.371C189.69 160.77 190.174 160.543 189.772 158.987C189.507 157.963 189.066 155.597 188.793 153.728C188.368 150.833 187.724 150.157 184.433 149.157C182.23 148.486 180.384 147.237 180.135 146.248C179.895 145.294 180.899 134.015 182.366 121.182L185.033 97.8509L188.558 97.7379C190.497 97.6756 199.291 98.4856 208.101 99.5387C222.561 101.265 224.142 101.28 224.363 99.6906C224.838 96.2646 226.231 98.2115 225.992 101.968C225.858 104.065 225.686 106.809 225.609 108.068C225.531 109.326 225.761 110.396 226.12 110.446C227.135 110.587 228.7 107.287 227.821 106.858C227.392 106.646 227.542 104.005 228.156 100.988C229.448 94.6306 229.046 94.3656 221.736 96.7623C217.433 98.1732 215.276 98.1633 205.137 96.6847C198.728 95.7493 192.541 94.4295 191.39 93.7518C189.957 92.908 193.203 93.0599 201.661 94.2334C211.256 95.5646 215.173 95.6835 219.14 94.7644C225.323 93.3322 225.322 93.4592 219.252 78.2597C214.332 65.9446 212.55 58.3679 213.379 53.2999C213.846 50.44 213.981 50.795 214.107 55.2202C214.283 61.3958 216.45 68.2372 222.032 80.2411C224.163 84.8235 225.833 89.0928 225.745 89.7297C225.657 90.3656 226.041 90.9501 226.599 91.0275C228.3 91.2635 227.968 89.914 224.332 81.8247C217.45 66.5146 215.709 59.0021 215.78 44.9161L215.81 38.7671L214.548 43.2069C213.311 47.5547 213.292 47.5696 213.648 43.9116C214.073 39.5434 213.931 39.4171 208.223 39.0476ZM222.686 104.329C222.57 105.159 222.933 105.902 223.491 105.979C224.048 106.056 224.599 105.441 224.714 104.611C224.829 103.78 224.467 103.038 223.909 102.961C223.351 102.883 222.801 103.499 222.686 104.329ZM186.289 103.894C184.808 110.15 182.31 140.681 183.027 143.769C183.571 146.111 184.345 146.478 192.501 148.262C199.586 149.811 202.035 149.972 204.616 149.062C206.394 148.433 208.622 148.024 209.566 148.151C210.51 148.279 211.633 147.963 212.061 147.449C212.49 146.935 213.3 146.893 213.863 147.354C214.482 147.864 213.912 148.406 212.417 148.731C209.385 149.389 209.846 150.375 213.013 150.006C215.292 149.741 215.335 149.562 218.413 126.953L221.515 104.167L204.432 101.797L187.348 99.4262L186.289 103.894ZM222.757 107.858C222.364 108.328 222.468 109.061 222.987 109.488C223.506 109.914 224.028 109.557 224.148 108.695C224.393 106.927 223.82 106.583 222.757 107.858ZM198.546 105.326C201.464 105.939 206.028 106.57 208.689 106.729C211.349 106.887 208.96 106.386 203.381 105.614C197.802 104.843 195.626 104.714 198.546 105.326ZM225.618 113.001C225.498 113.863 225.895 114.353 226.501 114.088C227.106 113.823 227.66 113.181 227.733 112.66C227.805 112.139 227.408 111.65 226.85 111.573C226.292 111.495 225.737 112.138 225.618 113.001ZM198.347 109.333C196.098 109.485 195.863 109.907 195.762 113.965C195.692 116.804 196.501 119.767 197.981 122.099C200.084 125.411 200.181 126.298 198.969 131.214C197.956 135.327 196.998 137.007 195.052 138.084C191.702 139.938 193.179 142.179 198.211 142.877C203.371 143.593 205.269 141.815 202.39 138.96C200.743 137.328 199.881 137.015 199.205 137.805C197.827 139.415 198.359 136.641 200.713 129.935C201.826 126.765 203.969 122.817 205.474 121.16C208.125 118.245 210.8 112.728 210.044 111.736C209.403 110.897 200.937 109.157 198.347 109.333ZM222.505 113.082C222.424 113.667 222.852 113.931 223.458 113.666C224.063 113.401 224.586 112.986 224.62 112.741C224.654 112.497 224.225 112.234 223.667 112.157C223.109 112.079 222.586 112.496 222.505 113.082ZM201.37 110.795C202.312 111.184 203.908 111.406 204.92 111.288C205.932 111.171 205.161 110.853 203.209 110.582C201.256 110.311 200.428 110.407 201.37 110.795ZM216.344 120.968C215.791 125.358 215.361 131.489 215.388 134.595C215.42 138.247 215.888 135.595 216.713 127.087C218.133 112.443 217.901 108.604 216.344 120.968ZM196.609 113.445C196.242 116.087 199.495 121.109 201.78 121.426C202.855 121.575 203.795 121.259 203.87 120.722C203.944 120.187 203.361 119.896 202.574 120.077C201.787 120.258 200.71 119.714 200.182 118.868C199.399 117.616 199.746 117.484 202.056 118.154C204.183 118.771 205.382 118.452 206.86 116.873C207.944 115.716 208.875 114.455 208.928 114.068C208.982 113.683 206.288 112.975 202.943 112.494C197.735 111.746 196.825 111.883 196.609 113.445ZM186.716 120.362C185.987 125.619 185.86 127.794 186.434 125.194C187.007 122.594 187.604 118.293 187.76 115.635C187.916 112.977 187.446 115.105 186.716 120.362ZM221.947 117.106C221.865 117.692 222.294 117.955 222.899 117.691C223.505 117.426 224.028 117.01 224.062 116.766C224.096 116.521 223.667 116.259 223.109 116.181C222.551 116.104 222.028 116.521 221.947 117.106ZM224.998 117.469C224.921 118.022 225.315 118.538 225.873 118.616C226.43 118.693 226.95 118.304 227.027 117.75C227.103 117.197 226.71 116.681 226.152 116.604C225.594 116.526 225.075 116.916 224.998 117.469ZM225.05 121.441C224.515 122.081 224.315 122.915 224.603 123.294C225.386 124.32 226.56 123.133 226.271 121.606C226.07 120.536 225.831 120.503 225.05 121.441ZM221.851 125.834C221.737 127.013 221.945 127.285 222.379 126.528C222.773 125.842 222.857 124.969 222.567 124.588C222.276 124.208 221.955 124.768 221.851 125.834ZM224.755 127.263C224.641 128.442 224.848 128.714 225.283 127.957C225.677 127.271 225.761 126.397 225.47 126.017C225.18 125.636 224.858 126.196 224.755 127.263ZM221.076 130.83C220.957 131.692 221.354 132.182 221.959 131.918C222.565 131.653 223.119 131.011 223.191 130.49C223.264 129.968 222.866 129.48 222.308 129.402C221.751 129.325 221.196 129.968 221.076 130.83ZM220.378 135.861C220.259 136.723 220.656 137.213 221.261 136.948C221.867 136.684 222.421 136.042 222.493 135.52C222.566 134.999 222.168 134.51 221.61 134.433C221.053 134.355 220.498 134.998 220.378 135.861ZM185.711 133.554C185.519 134.938 185.671 135.536 186.048 134.883C186.426 134.231 186.583 133.099 186.397 132.367C186.212 131.637 185.903 132.171 185.711 133.554ZM220.621 139.167C220.318 139.548 219.81 141.789 219.493 144.147C219.021 147.654 219.196 148.263 220.456 147.489C222.164 146.44 222.878 143.838 221.509 143.649C221.029 143.582 221.01 142.426 221.469 141.079C222.264 138.746 221.795 137.69 220.621 139.167ZM193.968 139.93C193.899 140.428 195.668 141.089 197.899 141.398C203.183 142.131 203.381 140.668 198.124 139.737C195.907 139.345 194.037 139.432 193.968 139.93ZM185.307 143.326C185.194 144.505 185.401 144.776 185.836 144.019C186.23 143.334 186.314 142.46 186.023 142.08C185.733 141.699 185.411 142.259 185.307 143.326ZM219.691 149.755C217.945 151.064 217.58 153.359 219.082 153.567C219.822 153.67 219.653 154.243 218.596 155.205C217.209 156.469 217.197 156.644 218.519 156.404C219.43 156.24 220.373 154.621 220.817 152.455C221.657 148.356 221.633 148.298 219.691 149.755ZM194.836 146.844C196.628 147.321 199.367 147.697 200.924 147.679C202.48 147.66 201.013 147.27 197.665 146.811C194.317 146.352 193.045 146.367 194.836 146.844ZM190.08 151.169C189.117 151.892 190.409 158.021 191.956 160.059C193.115 161.584 193.231 161.462 192.997 158.966C192.669 155.465 191.603 150.78 191.118 150.713C190.919 150.685 190.452 150.89 190.08 151.169ZM194.067 155.48C194.42 157.363 195.272 159.673 195.961 160.614C197.059 162.114 197.213 161.817 197.203 158.223C197.192 154.222 197.206 154.204 197.77 157.532C198.538 162.068 199.576 162.044 199.353 157.496C199.248 155.358 199.583 153.938 200.171 154.02C200.719 154.096 201.106 155.649 201.032 157.472C200.853 161.825 202.765 161.573 203.794 157.108L204.601 153.609L199.013 152.834L193.426 152.059L194.067 155.48ZM205.001 158.023C204.582 161.667 204.683 161.952 205.669 159.91C207.341 156.451 207.676 154.036 206.507 153.873C205.949 153.796 205.271 155.664 205.001 158.023ZM207.854 157.65C207.357 159.555 207.316 161.164 207.762 161.226C208.208 161.288 208.693 160.47 208.841 159.409C208.988 158.347 209.485 156.801 209.945 155.973C210.405 155.144 210.326 154.403 209.769 154.326C209.213 154.249 208.351 155.744 207.854 157.65ZM210.898 156.911C210.258 158.44 209.941 159.962 210.194 160.293C210.898 161.216 212.346 158.115 212.196 156.004C212.097 154.623 211.756 154.862 210.898 156.911ZM218.252 158.64C218.171 159.226 218.599 159.489 219.205 159.224C219.81 158.96 220.333 158.544 220.367 158.3C220.401 158.055 219.972 157.793 219.414 157.715C218.856 157.638 218.333 158.054 218.252 158.64ZM189.617 163.836C191.255 165.239 202.058 166.738 205.846 166.088C207.576 165.792 204.979 165.117 198.362 164.142C191.479 163.129 188.675 163.03 189.617 163.836Z" fill="#F4F4F4"/>
<path d="M27.936 262.296H16.512L3.36 195.096H11.808L22.368 253.848L33.792 195.096H42.048L27.936 262.296ZM52.575 203.736V195.096H61.695V203.736H52.575ZM53.055 262.296V214.296H61.215V262.296H53.055ZM76.5863 214.296H84.2663V216.6C86.2503 215.064 88.8103 214.296 91.9463 214.296H94.4423C99.6263 214.296 103.466 215.512 105.962 217.944C108.522 220.376 109.802 224.28 109.802 229.656V262.296H101.642V227.736C101.642 225.816 101.066 224.312 99.9143 223.224C98.8263 222.072 97.3223 221.496 95.4023 221.496H90.9863C88.8743 221.496 87.3063 222.072 86.2823 223.224C85.2583 224.312 84.7463 225.496 84.7463 226.776V262.296H76.5863V214.296ZM157.608 246.936C157.608 252.312 156.264 256.216 153.576 258.648C150.952 261.08 146.856 262.296 141.288 262.296H140.04C134.472 262.296 130.344 261.08 127.656 258.648C125.032 256.216 123.72 252.312 123.72 246.936V229.656C123.72 224.28 125.032 220.376 127.656 217.944C130.344 215.512 134.472 214.296 140.04 214.296H141.288C146.856 214.296 150.952 215.512 153.576 217.944C156.264 220.376 157.608 224.28 157.608 229.656V246.936ZM149.448 227.736C149.448 225.752 148.84 224.216 147.624 223.128C146.408 222.04 144.616 221.496 142.248 221.496H139.08C136.712 221.496 134.92 222.04 133.704 223.128C132.488 224.216 131.88 225.752 131.88 227.736V248.856C131.88 250.84 132.488 252.376 133.704 253.464C134.92 254.552 136.712 255.096 139.08 255.096H142.248C144.616 255.096 146.408 254.552 147.624 253.464C148.84 252.376 149.448 250.84 149.448 248.856V227.736ZM191.066 262.296H179.258L166.298 214.296H175.034L185.402 255.48L195.482 214.296H203.93L191.066 262.296ZM243.281 262.296C242.449 262.296 241.521 262.04 240.497 261.528C239.537 261.016 238.705 260.312 238.001 259.416C236.529 261.336 234.577 262.296 232.145 262.296H225.521C220.657 262.296 217.105 261.336 214.865 259.416C212.689 257.432 211.601 254.072 211.601 249.336V247.416C211.601 237.496 216.273 232.536 225.617 232.536H235.601V227.736C235.601 225.752 234.993 224.216 233.777 223.128C232.561 222.04 230.769 221.496 228.401 221.496H215.441V214.296H227.441C233.009 214.296 237.105 215.512 239.729 217.944C242.417 220.376 243.761 224.28 243.761 229.656V252.696C243.761 253.656 244.113 254.392 244.817 254.904C245.585 255.352 246.833 255.576 248.561 255.576V262.296H243.281ZM231.185 255.096C233.105 255.096 234.321 254.648 234.833 253.752C235.345 252.856 235.601 251.704 235.601 250.296V239.736H225.521C223.857 239.736 222.481 240.28 221.393 241.368C220.305 242.456 219.761 243.832 219.761 245.496V250.296C219.761 251.96 220.145 253.176 220.913 253.944C221.681 254.712 222.897 255.096 224.561 255.096H231.185ZM283.959 260.088C281.847 261.56 279.287 262.296 276.279 262.296H274.935C269.751 262.296 265.879 261.08 263.319 258.648C260.823 256.216 259.575 252.312 259.575 246.936V214.296H267.735V248.856C267.735 250.776 268.279 252.312 269.367 253.464C270.519 254.552 272.055 255.096 273.975 255.096H277.239C279.287 255.096 280.791 254.584 281.751 253.56C282.775 252.536 283.351 251.384 283.479 250.104V214.296H291.639V262.296H283.959V260.088ZM314.704 262.296C312.528 262.296 310.608 261.528 308.944 259.992C307.344 258.456 306.544 256.024 306.544 252.696V195.096H314.704V252.216C314.704 253.24 314.96 253.976 315.472 254.424C315.984 254.872 316.848 255.096 318.064 255.096H319.984V262.296H314.704ZM341.584 262.296C338.32 262.296 335.824 261.24 334.096 259.128C332.368 257.016 331.504 254.232 331.504 250.776V221.496H325.264V214.296H331.504V202.776H339.664V214.296H350.8V221.496H339.664V251.256C339.664 252.664 340.016 253.656 340.72 254.232C341.424 254.808 342.512 255.096 343.984 255.096H350.8V262.296H341.584Z" fill="#F4F4F4"/>
</svg>
