<svg width="465" height="347" viewBox="0 0 465 347" fill="none" xmlns="http://www.w3.org/2000/svg">
<path fill-rule="evenodd" clip-rule="evenodd" d="M152.937 2.24295C150.155 3.78494 150.094 4.31996 151.898 11.3927C152.951 15.5237 155.788 34.1334 158.199 52.7465C162.291 84.3137 162.502 87.8682 161.345 105.627C160.662 116.098 160.044 130.136 159.969 136.821C159.785 153.437 165.561 199.219 169.644 213.493C172.491 223.452 173.448 225.237 177.268 227.708C183.051 231.451 186.509 231.731 198.575 229.436C210.749 227.12 214.9 224.698 217.884 218.167C220.052 213.419 219.979 212.237 215.933 186.611C210.068 149.47 199.599 112.864 190.431 97.443C180.779 81.206 168.233 28.0398 170.093 11.2595C170.919 3.80894 170.842 3.50838 167.575 1.48184C163.976 -0.752449 157.758 -0.429347 152.937 2.24295ZM154.473 5.43245C154.629 6.66993 155.617 7.23359 156.896 6.8139C160.146 5.74979 160.213 2.58936 156.977 2.99616C155.346 3.20114 154.319 4.2016 154.473 5.43245ZM155.046 9.98272C155.137 10.713 156.109 11.1978 157.204 11.0601C158.3 10.9224 159.121 10.2122 159.029 9.48195C158.938 8.75168 157.966 8.26685 156.871 8.40456C155.775 8.54228 154.954 9.25245 155.046 9.98272ZM160.357 9.31503C160.449 10.0453 161.122 10.5677 161.852 10.4759C162.582 10.3841 163.105 9.71145 163.013 8.98118C162.921 8.2509 162.249 7.72852 161.518 7.82033C160.788 7.91214 160.265 8.58475 160.357 9.31503ZM164.341 8.81425C164.433 9.54453 165.105 10.0669 165.836 9.9751C166.566 9.88329 167.089 9.21068 166.997 8.48041C166.905 7.75013 166.232 7.22775 165.502 7.31956C164.772 7.41137 164.249 8.08398 164.341 8.81425ZM158.297 15.8363C158.276 16.4742 159.435 25.3463 160.87 35.5513C164.042 58.1084 165.784 87.8292 165.419 113.207C165.026 140.6 167.188 173.764 170.653 193.475C175.454 220.785 175.056 220.293 191.624 219.47L201.556 218.978L199.788 202.483C198.816 193.41 196.547 176.007 194.748 163.808C191.978 145.044 191.772 141.591 193.411 141.385C195.825 141.081 201.106 134.015 199.722 132.94C199.163 132.504 197.148 134.066 195.247 136.409C191.366 141.191 191.11 140.971 188.535 130.64C187.653 127.099 186.77 124.11 186.573 123.994C186.377 123.878 182.516 123.878 177.994 123.993L169.774 124.204L169.811 131.241C169.834 135.111 170.794 146.352 171.947 156.221C173.694 171.165 173.706 173.193 172.026 168.35C169.294 160.479 167.848 138.007 168.238 109.481C168.416 96.477 168.474 83.4205 168.367 80.4667C168.195 75.6691 168.278 75.803 169.153 81.7167C169.692 85.358 170.007 95.8495 169.857 105.03C169.55 123.67 169.332 123.267 178.68 121.404C184.105 120.323 184.436 119.997 184.659 115.51L184.897 110.759L185.625 115.14C186.285 119.107 186.694 119.439 189.953 118.642C194.503 117.531 194.214 116.113 185.399 96.2858C175.905 74.9307 172.366 62.7593 168.35 37.6457C166.402 25.4659 164.342 15.5579 163.773 15.6294C163.204 15.701 161.747 15.516 160.536 15.2177C159.325 14.9195 158.317 15.1985 158.297 15.8363ZM166.888 57.0494C168.127 66.9081 168.843 70.9143 168.479 65.9534C168.115 60.9927 167.1 52.9251 166.226 48.0285C165.35 43.132 165.648 47.1907 166.888 57.0494ZM182.216 106.375C182.446 108.201 182.841 108.911 183.094 107.951C183.348 106.992 183.161 105.499 182.677 104.632C182.194 103.766 181.987 104.55 182.216 106.375ZM188.327 124.49C188.419 125.22 189.056 125.747 189.744 125.66C190.432 125.574 191.287 124.859 191.647 124.072C192.007 123.285 191.368 122.759 190.23 122.902C189.092 123.045 188.235 123.759 188.327 124.49ZM192.761 125.705C190.63 128.634 189.97 137.771 191.906 137.527C192.226 137.487 194.129 135.53 196.133 133.176C199.339 129.414 199.562 128.491 197.986 125.525C195.814 121.438 195.869 121.435 192.761 125.705ZM192.648 130.241C192.222 130.789 191.951 131.854 192.046 132.61C192.15 133.441 192.759 133.285 193.592 132.213C194.348 131.24 194.618 130.174 194.194 129.845C193.769 129.515 193.073 129.693 192.648 130.241ZM196.646 141.032C194.826 143.518 193.615 145.769 193.956 146.034C195.145 146.957 201.388 139.504 200.673 138.013C200.248 137.126 198.595 138.366 196.646 141.032ZM197.295 145.684C195.459 147.76 194.224 150.005 194.55 150.673C195.239 152.081 203.002 144.651 202.77 142.808C202.518 140.797 200.84 141.678 197.295 145.684ZM198.707 150.581C196.544 152.475 194.86 154.775 194.965 155.688C195.283 158.454 197.092 157.347 201.212 151.868C205.631 145.991 204.57 145.446 198.707 150.581ZM200.027 155.859C196.146 160.051 194.459 164.182 196.744 163.894C198.237 163.707 205.543 155.86 206.016 153.935C206.922 150.254 204.494 151.034 200.027 155.859ZM201.47 161.972C195.886 168.502 196.815 171.849 202.703 166.409L207.235 162.222L202.869 167.681C198.813 172.752 198.581 173.654 199.588 180.409C200.185 184.407 201.076 187.628 201.567 187.566C202.058 187.504 204.545 184.978 207.092 181.952C210.134 178.338 211.094 176.319 209.891 176.061C208.883 175.847 206.877 177.098 205.432 178.843C203.986 180.588 202.246 182.084 201.563 182.167C200.879 182.252 202.716 179.654 205.645 176.397C211.915 169.42 210.847 166.836 204.243 173.007L199.684 177.267L203.947 171.985C207.378 167.736 208.067 165.777 207.48 161.972C207.077 159.371 206.42 157.301 206.021 157.372C205.62 157.444 203.573 159.514 201.47 161.972ZM205.082 186.431C202.581 189.269 200.837 192.219 201.205 192.988C202.053 194.757 212.113 184.93 211.822 182.616C211.492 179.99 210.027 180.819 205.082 186.431ZM205.832 192.864C203.289 195.629 201.582 198.671 202.038 199.623C202.616 200.83 204.358 199.622 207.802 195.623C212.423 190.26 213.757 187.355 211.449 187.693C210.902 187.772 208.375 190.099 205.832 192.864ZM207.12 198.864C204.192 202.127 202.312 205.208 202.943 205.709C203.574 206.211 206.064 204.293 208.477 201.447C211.927 197.379 211.774 197.771 207.76 203.288C201.471 211.93 202.465 213.609 209.271 205.841C213.263 201.285 214.089 199.402 213.36 196.53L212.444 192.929L207.12 198.864ZM208.045 209.4C202.144 217.186 202.889 218.273 209.361 211.32C214.422 205.882 215.763 203.315 213.387 203.614C212.806 203.687 210.401 206.29 208.045 209.4ZM177.765 222.867C177.861 223.631 178.688 224.167 179.601 224.061C180.516 223.954 183.695 223.897 186.667 223.935C190.312 223.981 191.372 223.68 189.923 223.01C186.443 221.399 177.567 221.295 177.765 222.867ZM182.424 227.737C182.516 228.468 183.224 228.986 183.997 228.888C184.77 228.791 184.959 228.161 184.416 227.487C183.873 226.813 183.165 226.295 182.843 226.336C182.52 226.377 182.332 227.007 182.424 227.737Z" fill="#F4F4F4"/>
<path fill-rule="evenodd" clip-rule="evenodd" d="M270.937 0.769755C266.244 2.06201 266.115 2.2637 266.324 7.96748C266.442 11.1952 264.758 27.1748 262.58 43.4785L258.622 73.1218L249.906 88.056C245.114 96.2704 239.635 107.553 237.731 113.128C230.275 134.973 224.784 195.297 229.377 204.906C230.312 206.862 233.735 210.25 236.984 212.437C242.152 215.915 244.926 216.694 259.18 218.672C273.841 220.706 276.196 220.689 282.725 218.507C287.178 217.018 290.891 214.703 292.34 212.512C295.26 208.095 301.933 166.653 303.724 141.822C305.111 122.571 304.092 115.407 297.745 99.8213C295.301 93.8212 292.023 83.794 290.46 77.5387C287.832 67.0199 287.769 64.4516 289.631 43.3722C290.872 29.3168 292.319 19.3551 293.403 17.3879C294.372 15.6325 295.483 11.8878 295.875 9.06698C296.523 4.3988 296.216 3.80864 292.461 2.5069C285.611 0.132027 276.051 -0.638322 270.937 0.769755ZM277.067 5.00312C276.965 5.74367 278.408 6.56145 280.274 6.8204C282.141 7.07936 283.752 6.68532 283.855 5.94477C283.958 5.20421 282.515 4.38643 280.648 4.12748C278.781 3.86853 277.17 4.26256 277.067 5.00312ZM289.728 9.32037C289.013 10.1777 288.744 11.2933 289.131 11.7998C290.178 13.1734 291.749 11.5853 291.363 9.54174C291.094 8.11008 290.774 8.06563 289.728 9.32037ZM270.89 9.63564C270.589 11.8061 271.422 12.4542 275.179 12.9755C280.752 13.7486 287.096 12.5028 287.362 10.5828C287.472 9.79377 284.065 8.71867 279.409 8.0727C272.169 7.06834 271.222 7.24164 270.89 9.63564ZM272.883 20.2049L270.08 40.4018L275.489 40.7172C284.948 41.2677 286.007 40.2975 287.473 29.7291C288.987 18.8214 286.667 16.4136 284.857 27.0126L283.655 34.0508L283.93 20.3651L272.883 20.2049ZM276.267 42.9523C273.037 42.7938 270.671 43.2848 271.008 44.0425C271.998 46.2618 281.789 47.0409 283.96 45.0722C285.551 43.6309 285.565 43.2829 284.034 43.264C282.993 43.2513 279.496 43.1107 276.267 42.9523ZM274.181 48.2443L268.352 47.8681L267.455 54.1828C266.314 62.219 262.239 72.6588 252.782 91.7693C239.463 118.685 238.185 123.203 234.081 157.861C231.635 178.519 230.8 190.379 231.536 194.004C233.135 201.892 239.811 209.809 245.533 210.603C249.377 211.136 250.025 210.832 249.486 208.749C249.131 207.38 248.541 204.213 248.176 201.713C247.608 197.838 246.745 196.933 242.341 195.595C239.393 194.697 236.922 193.026 236.589 191.702C236.268 190.425 237.611 175.331 239.574 158.158L243.144 126.936L247.861 126.785C250.456 126.702 262.226 127.786 274.017 129.195C293.37 131.505 295.486 131.526 295.782 129.398C296.418 124.813 298.281 127.419 297.962 132.445C297.782 135.252 297.552 138.924 297.449 140.608C297.345 142.293 297.653 143.725 298.133 143.791C299.492 143.98 301.587 139.565 300.41 138.99C299.835 138.707 300.036 135.172 300.858 131.134C302.587 122.627 302.049 122.272 292.266 125.479C286.507 127.368 283.621 127.354 270.05 125.376C261.472 124.124 253.193 122.358 251.651 121.451C249.734 120.321 254.078 120.525 265.398 122.095C278.239 123.877 283.482 124.036 288.792 122.806C297.066 120.889 297.065 121.059 288.941 100.719C282.357 84.2385 279.971 74.0991 281.081 67.3171C281.706 63.4898 281.887 63.9649 282.056 69.8869C282.291 78.1511 285.191 87.3065 292.662 103.37C295.514 109.503 297.75 115.216 297.631 116.068C297.513 116.919 298.027 117.701 298.774 117.805C301.051 118.121 300.607 116.315 295.74 105.49C286.53 85.0013 284.2 74.9479 284.294 56.0976L284.335 47.8689L282.646 53.8103C280.99 59.6287 280.965 59.6486 281.441 54.7534C282.01 48.9078 281.82 48.7388 274.181 48.2443ZM293.537 135.606C293.383 136.716 293.867 137.71 294.614 137.814C295.361 137.917 296.098 137.093 296.252 135.982C296.406 134.871 295.921 133.878 295.174 133.774C294.428 133.671 293.691 134.495 293.537 135.606ZM244.825 135.024C242.843 143.395 239.5 184.253 240.46 188.385C241.187 191.519 242.223 192.01 253.138 194.397C262.621 196.47 265.899 196.686 269.353 195.468C271.733 194.626 274.715 194.079 275.978 194.249C277.241 194.42 278.744 193.997 279.317 193.309C279.891 192.622 280.976 192.565 281.728 193.183C282.557 193.865 281.795 194.59 279.793 195.025C275.736 195.906 276.352 197.225 280.591 196.732C283.642 196.377 283.698 196.138 287.818 165.881L291.97 135.388L246.242 129.044L244.825 135.024ZM293.633 140.327C293.107 140.957 293.246 141.939 293.94 142.51C294.635 143.079 295.333 142.601 295.493 141.447C295.822 139.082 295.055 138.621 293.633 140.327ZM261.229 136.94C265.134 137.76 271.243 138.605 274.805 138.817C278.364 139.029 275.167 138.359 267.7 137.325C260.233 136.294 257.321 136.12 261.229 136.94ZM297.461 147.21C297.301 148.364 297.833 149.02 298.643 148.665C299.453 148.311 300.195 147.452 300.292 146.755C300.388 146.057 299.857 145.403 299.11 145.299C298.363 145.196 297.621 146.056 297.461 147.21ZM260.963 142.302C257.953 142.506 257.638 143.07 257.503 148.501C257.409 152.299 258.492 156.265 260.473 159.386C263.288 163.818 263.417 165.005 261.796 171.583C260.44 177.088 259.158 179.336 256.553 180.777C252.069 183.258 254.046 186.257 260.781 187.192C267.687 188.15 270.227 185.77 266.373 181.95C264.169 179.765 263.017 179.347 262.112 180.403C260.267 182.559 260.979 178.846 264.129 169.872C265.619 165.63 268.487 160.346 270.502 158.13C274.05 154.228 277.63 146.845 276.617 145.518C275.76 144.394 264.429 142.066 260.963 142.302ZM293.295 147.318C293.186 148.102 293.76 148.455 294.57 148.1C295.38 147.746 296.08 147.19 296.126 146.863C296.171 146.536 295.597 146.184 294.85 146.081C294.104 145.977 293.404 146.535 293.295 147.318ZM265.009 144.259C266.269 144.779 268.406 145.076 269.76 144.918C271.114 144.761 270.083 144.335 267.47 143.973C264.857 143.61 263.748 143.739 265.009 144.259ZM285.049 157.872C284.309 163.746 283.734 171.952 283.77 176.108C283.812 180.996 284.439 177.446 285.543 166.061C287.443 146.464 287.133 141.327 285.049 157.872ZM258.636 147.805C258.146 151.34 262.5 158.061 265.557 158.485C266.996 158.685 268.254 158.261 268.354 157.544C268.453 156.827 267.673 156.438 266.62 156.68C265.566 156.922 264.126 156.194 263.418 155.062C262.371 153.387 262.835 153.21 265.927 154.107C268.773 154.932 270.378 154.505 272.356 152.392C273.807 150.844 275.053 149.156 275.124 148.639C275.196 148.123 271.591 147.176 267.115 146.533C260.144 145.531 258.926 145.715 258.636 147.805ZM245.397 157.061C244.421 164.096 244.251 167.007 245.019 163.527C245.786 160.048 246.585 154.293 246.793 150.736C247.002 147.179 246.373 150.026 245.397 157.061ZM292.548 152.704C292.439 153.488 293.013 153.84 293.823 153.486C294.633 153.132 295.333 152.576 295.378 152.249C295.424 151.921 294.85 151.57 294.103 151.466C293.357 151.363 292.657 151.92 292.548 152.704ZM296.631 153.19C296.529 153.93 297.055 154.621 297.802 154.724C298.549 154.828 299.244 154.307 299.346 153.566C299.449 152.826 298.922 152.135 298.176 152.031C297.429 151.928 296.734 152.449 296.631 153.19ZM296.701 158.505C295.985 159.362 295.717 160.478 296.103 160.984C297.151 162.358 298.722 160.77 298.336 158.726C298.067 157.295 297.746 157.25 296.701 158.505ZM292.42 164.385C292.267 165.962 292.545 166.326 293.127 165.313C293.654 164.395 293.766 163.226 293.378 162.717C292.989 162.207 292.559 162.957 292.42 164.385ZM296.306 166.296C296.153 167.874 296.431 168.237 297.013 167.224C297.54 166.307 297.652 165.138 297.264 164.628C296.875 164.119 296.444 164.869 296.306 166.296ZM291.383 171.07C291.223 172.224 291.755 172.879 292.565 172.525C293.375 172.171 294.117 171.312 294.214 170.614C294.31 169.917 293.778 169.262 293.032 169.159C292.285 169.055 291.543 169.916 291.383 171.07ZM290.449 177.802C290.289 178.956 290.82 179.612 291.631 179.257C292.441 178.903 293.183 178.044 293.279 177.346C293.376 176.649 292.844 175.995 292.098 175.891C291.351 175.788 290.609 176.648 290.449 177.802ZM244.051 174.715C243.795 176.567 243.998 177.367 244.502 176.493C245.008 175.621 245.218 174.106 244.969 173.127C244.721 172.15 244.308 172.864 244.051 174.715ZM290.773 182.226C290.367 182.737 289.688 185.736 289.264 188.891C288.633 193.583 288.867 194.398 290.553 193.363C292.839 191.959 293.794 188.478 291.962 188.224C291.319 188.135 291.294 186.587 291.908 184.785C292.972 181.663 292.345 180.25 290.773 182.226ZM255.102 183.247C255.009 183.914 257.377 184.798 260.364 185.212C267.435 186.194 267.7 184.235 260.664 182.99C257.697 182.464 255.194 182.581 255.102 183.247ZM243.511 187.792C243.359 189.369 243.636 189.733 244.218 188.72C244.745 187.802 244.858 186.634 244.469 186.124C244.08 185.615 243.65 186.365 243.511 187.792ZM289.529 196.395C287.193 198.147 286.703 201.218 288.713 201.497C289.704 201.634 289.478 202.402 288.063 203.689C286.207 205.38 286.191 205.614 287.96 205.294C289.18 205.074 290.441 202.907 291.036 200.009C292.161 194.523 292.128 194.446 289.529 196.395ZM256.264 192.501C258.662 193.138 262.328 193.641 264.411 193.617C266.494 193.592 264.531 193.07 260.05 192.456C255.57 191.842 253.866 191.862 256.264 192.501ZM249.899 198.287C248.609 199.256 250.34 207.457 252.409 210.184C253.96 212.226 254.116 212.062 253.803 208.722C253.364 204.037 251.937 197.767 251.288 197.677C251.021 197.64 250.396 197.914 249.899 198.287ZM255.235 204.057C255.707 206.577 256.847 209.668 257.77 210.928C259.239 212.935 259.445 212.537 259.431 207.727C259.417 202.373 259.436 202.35 260.19 206.803C261.219 212.873 262.607 212.841 262.309 206.754C262.169 203.894 262.617 201.994 263.404 202.103C264.137 202.205 264.655 204.283 264.556 206.723C264.316 212.548 266.876 212.21 268.253 206.235L269.333 201.553L254.377 199.478L255.235 204.057ZM269.868 207.46C269.308 212.336 269.443 212.717 270.763 209.986C273.001 205.357 273.449 202.124 271.884 201.907C271.137 201.803 270.23 204.303 269.868 207.46ZM273.687 206.96C273.022 209.51 272.967 211.664 273.564 211.747C274.16 211.829 274.81 210.735 275.007 209.315C275.204 207.894 275.869 205.825 276.485 204.716C277.101 203.608 276.995 202.616 276.25 202.513C275.506 202.409 274.352 204.411 273.687 206.96ZM277.761 205.972C276.904 208.017 276.48 210.054 276.819 210.498C277.761 211.733 279.698 207.583 279.498 204.758C279.366 202.91 278.909 203.23 277.761 205.972ZM287.603 208.286C287.494 209.069 288.068 209.422 288.878 209.068C289.688 208.714 290.388 208.157 290.433 207.83C290.479 207.503 289.905 207.152 289.158 207.048C288.411 206.944 287.711 207.502 287.603 208.286ZM249.279 215.239C251.472 217.116 265.929 219.122 270.999 218.253C273.314 217.856 269.839 216.953 260.983 215.649C251.771 214.292 248.019 214.16 249.279 215.239Z" fill="#F4F4F4"/>
<path d="M32.8916 347H17.6021L0 257.071H11.3065L25.4396 335.695L40.729 257.071H51.7785L32.8916 347Z" fill="#F4F4F4"/>
<path d="M65.8675 268.634V257.071H78.0733V268.634H65.8675ZM66.5099 347V282.765H77.4309V347H66.5099Z" fill="#F4F4F4"/>
<path d="M98.0032 282.765H108.282V285.849C110.937 283.793 114.363 282.765 118.56 282.765H121.901C128.839 282.765 133.978 284.393 137.319 287.647C140.745 290.902 142.458 296.126 142.458 303.32V347H131.537V300.751C131.537 298.182 130.766 296.169 129.224 294.713C127.768 293.171 125.755 292.4 123.186 292.4H117.276C114.449 292.4 112.35 293.171 110.98 294.713C109.609 296.169 108.924 297.753 108.924 299.466V347H98.0032V282.765Z" fill="#F4F4F4"/>
<path d="M206.44 326.445C206.44 333.639 204.641 338.864 201.043 342.118C197.531 345.373 192.05 347 184.598 347H182.927C175.475 347 169.95 345.373 166.353 342.118C162.841 338.864 161.085 333.639 161.085 326.445V303.32C161.085 296.126 162.841 290.902 166.353 287.647C169.95 284.393 175.475 282.765 182.927 282.765H184.598C192.05 282.765 197.531 284.393 201.043 287.647C204.641 290.902 206.44 296.126 206.44 303.32V326.445ZM195.519 300.751C195.519 298.096 194.705 296.04 193.077 294.584C191.45 293.128 189.052 292.4 185.882 292.4H181.642C178.473 292.4 176.075 293.128 174.447 294.584C172.82 296.04 172.006 298.096 172.006 300.751V329.014C172.006 331.669 172.82 333.725 174.447 335.181C176.075 336.637 178.473 337.365 181.642 337.365H185.882C189.052 337.365 191.45 336.637 193.077 335.181C194.705 333.725 195.519 331.669 195.519 329.014V300.751Z" fill="#F4F4F4"/>
<path d="M251.218 347H235.414L218.069 282.765H229.761L243.637 337.879L257.128 282.765H268.435L251.218 347Z" fill="#F4F4F4"/>
<path d="M321.101 347C319.988 347 318.746 346.657 317.375 345.972C316.091 345.287 314.977 344.345 314.035 343.146C312.065 345.715 309.452 347 306.197 347H297.332C290.822 347 286.068 345.715 283.07 343.146C280.158 340.491 278.702 335.994 278.702 329.657V327.087C278.702 313.812 284.955 307.174 297.461 307.174H310.823V300.751C310.823 298.096 310.009 296.04 308.382 294.584C306.754 293.128 304.356 292.4 301.187 292.4H283.841V282.765H299.902C307.354 282.765 312.836 284.393 316.348 287.647C319.945 290.902 321.744 296.126 321.744 303.32V334.153C321.744 335.438 322.215 336.423 323.157 337.108C324.185 337.707 325.855 338.007 328.168 338.007V347H321.101ZM304.913 337.365C307.482 337.365 309.11 336.765 309.795 335.566C310.48 334.367 310.823 332.826 310.823 330.941V316.81H297.332C295.105 316.81 293.263 317.538 291.807 318.994C290.351 320.45 289.623 322.291 289.623 324.518V330.941C289.623 333.168 290.137 334.795 291.165 335.823C292.193 336.851 293.82 337.365 296.047 337.365H304.913Z" fill="#F4F4F4"/>
<path d="M375.543 344.045C372.716 346.015 369.29 347 365.264 347H363.466C356.527 347 351.345 345.373 347.919 342.118C344.579 338.864 342.908 333.639 342.908 326.445V282.765H353.829V329.014C353.829 331.584 354.557 333.639 356.014 335.181C357.555 336.637 359.611 337.365 362.181 337.365H366.549C369.29 337.365 371.303 336.68 372.588 335.309C373.958 333.939 374.729 332.397 374.9 330.684V282.765H385.822V347H375.543V344.045Z" fill="#F4F4F4"/>
<path d="M416.69 347C413.778 347 411.209 345.972 408.982 343.917C406.84 341.861 405.769 338.607 405.769 334.153V257.071H416.69V333.511C416.69 334.881 417.033 335.866 417.718 336.466C418.404 337.065 419.56 337.365 421.187 337.365H423.757V347H416.69Z" fill="#F4F4F4"/>
<path d="M452.666 347C448.297 347 444.957 345.587 442.644 342.761C440.331 339.934 439.175 336.209 439.175 331.584V292.4H430.824V282.765H439.175V267.349H450.096V282.765H465V292.4H450.096V332.226C450.096 334.11 450.567 335.438 451.509 336.209C452.451 336.979 453.908 337.365 455.878 337.365H465V347H452.666Z" fill="#F4F4F4"/>
</svg>
