<svg width="140" height="25" viewBox="0 0 140 25" fill="none" xmlns="http://www.w3.org/2000/svg">
<path d="M9.90284 25H5.29957L0 0H3.4041L7.65923 21.8571L12.2625 0H15.5892L9.90284 25Z" fill="#232323"/>
<path d="M19.8311 3.21429V0H23.5059V3.21429H19.8311ZM20.0245 25V7.14286H23.3125V25H20.0245Z" fill="#232323"/>
<path d="M29.5063 7.14286H32.601V8C33.4004 7.42857 34.432 7.14286 35.6956 7.14286H36.7014C38.7903 7.14286 40.3376 7.59524 41.3433 8.5C42.3749 9.40476 42.8906 10.8571 42.8906 12.8571V25H39.6026V12.1429C39.6026 11.4286 39.3705 10.869 38.9063 10.4643C38.4679 10.0357 37.8619 9.82143 37.0882 9.82143H35.3088C34.4578 9.82143 33.8259 10.0357 33.4133 10.4643C33.0007 10.869 32.7944 11.3095 32.7944 11.7857V25H29.5063V7.14286Z" fill="#232323"/>
<path d="M62.1539 19.2857C62.1539 21.2857 61.6123 22.7381 60.5292 23.6429C59.4718 24.5476 57.8214 25 55.5778 25H55.0749C52.8313 25 51.1679 24.5476 50.0848 23.6429C49.0274 22.7381 48.4988 21.2857 48.4988 19.2857V12.8571C48.4988 10.8571 49.0274 9.40476 50.0848 8.5C51.1679 7.59524 52.8313 7.14286 55.0749 7.14286H55.5778C57.8214 7.14286 59.4718 7.59524 60.5292 8.5C61.6123 9.40476 62.1539 10.8571 62.1539 12.8571V19.2857ZM58.8658 12.1429C58.8658 11.4048 58.6208 10.8333 58.1308 10.4286C57.6408 10.0238 56.9188 9.82143 55.9646 9.82143H54.688C53.7339 9.82143 53.0118 10.0238 52.5218 10.4286C52.0318 10.8333 51.7868 11.4048 51.7868 12.1429V20C51.7868 20.7381 52.0318 21.3095 52.5218 21.7143C53.0118 22.119 53.7339 22.3214 54.688 22.3214H55.9646C56.9188 22.3214 57.6408 22.119 58.1308 21.7143C58.6208 21.3095 58.8658 20.7381 58.8658 20V12.1429Z" fill="#232323"/>
<path d="M75.6355 25H70.8775L65.6553 7.14286H69.1754L73.3532 22.4643L77.4149 7.14286H80.819L75.6355 25Z" fill="#232323"/>
<path d="M96.6757 25C96.3404 25 95.9665 24.9048 95.5539 24.7143C95.1671 24.5238 94.8318 24.2619 94.5481 23.9286C93.955 24.6429 93.1684 25 92.1885 25H89.5193C87.5594 25 86.1281 24.6429 85.2255 23.9286C84.3487 23.1905 83.9103 21.9405 83.9103 20.1786V19.4643C83.9103 15.7738 85.7929 13.9286 89.558 13.9286H93.581V12.1429C93.581 11.4048 93.3361 10.8333 92.8461 10.4286C92.3561 10.0238 91.634 9.82143 90.6798 9.82143H85.4576V7.14286H90.293C92.5366 7.14286 94.1871 7.59524 95.2444 8.5C96.3275 9.40476 96.8691 10.8571 96.8691 12.8571V21.4286C96.8691 21.7857 97.0109 22.0595 97.2946 22.25C97.6041 22.4167 98.107 22.5 98.8033 22.5V25H96.6757ZM91.8016 22.3214C92.5753 22.3214 93.0653 22.1548 93.2716 21.8214C93.4779 21.4881 93.581 21.0595 93.581 20.5357V16.6071H89.5193C88.8488 16.6071 88.2944 16.8095 87.856 17.2143C87.4176 17.619 87.1984 18.131 87.1984 18.75V20.5357C87.1984 21.1548 87.3531 21.6071 87.6626 21.8929C87.972 22.1786 88.462 22.3214 89.1325 22.3214H91.8016Z" fill="#232323"/>
<path d="M113.067 24.1786C112.216 24.7262 111.184 25 109.972 25H109.43C107.342 25 105.781 24.5476 104.75 23.6429C103.744 22.7381 103.241 21.2857 103.241 19.2857V7.14286H106.529V20C106.529 20.7143 106.748 21.2857 107.187 21.7143C107.651 22.119 108.27 22.3214 109.044 22.3214H110.359C111.184 22.3214 111.79 22.131 112.177 21.75C112.59 21.369 112.822 20.9405 112.873 20.4643V7.14286H116.161V25H113.067V24.1786Z" fill="#232323"/>
<path d="M125.455 25C124.578 25 123.805 24.7143 123.134 24.1429C122.49 23.5714 122.167 22.6667 122.167 21.4286V0H125.455V21.25C125.455 21.631 125.558 21.9048 125.765 22.0714C125.971 22.2381 126.319 22.3214 126.809 22.3214H127.583V25H125.455Z" fill="#232323"/>
<path d="M136.286 25C134.971 25 133.965 24.6071 133.269 23.8214C132.573 23.0357 132.225 22 132.225 20.7143V9.82143H129.71V7.14286H132.225V2.85714H135.513V7.14286H140V9.82143H135.513V20.8929C135.513 21.4167 135.655 21.7857 135.938 22C136.222 22.2143 136.66 22.3214 137.254 22.3214H140V25H136.286Z" fill="#232323"/>
</svg>
